<svg width="32" height="32" viewBox="0 0 32 32" fill="none" xmlns="http://www.w3.org/2000/svg">
<path d="M17.5175 0.26504C21.1226 0.149768 24.6616 1.25207 27.5636 3.39417C28.524 4.11251 29.0836 4.7155 29.9485 5.48516C29.8304 5.63484 29.579 5.87426 29.4338 6.01905L28.5048 6.94411C27.3318 8.1056 26.1653 9.27363 25.0052 10.4481C24.5228 10.069 24.0946 9.63469 23.5989 9.2543C21.9342 7.97309 20.026 7.29621 17.9285 7.28265C12.7616 7.24925 8.98452 10.7868 9.00351 16.025C9.02213 21.1597 12.7892 24.9 17.9272 24.8682C20.8458 24.8499 22.9382 23.6331 24.9487 21.6172C25.5073 22.1955 26.114 22.7598 26.6857 23.3381C27.0166 23.6745 27.352 23.9779 27.6835 24.3071C28.4478 25.0803 29.2202 25.8458 30 26.6034C29.7534 26.7746 29.3753 27.164 29.1403 27.3813C28.7304 27.7598 28.3321 28.1233 27.8897 28.4679C25.2634 30.5255 22.0546 31.7018 18.7208 31.8289C9.47683 32.1707 2.40583 25.8606 2.02549 16.5494C1.74074 9.57903 5.66513 3.31934 12.3777 1.11471C14.1202 0.542392 15.6824 0.326695 17.5175 0.26504Z" fill="#17191B"/>
<path d="M17.1911 10.7462C20.1094 10.5262 22.6549 12.7105 22.8805 15.6283C23.1062 18.5462 20.9269 21.0959 18.0095 21.3272C15.0841 21.559 12.5258 19.3725 12.2996 16.4467C12.0733 13.5208 14.2648 10.9669 17.1911 10.7462Z" fill="#17191B"/>
</svg>
