<svg width="1683" height="278" viewBox="0 0 1683 278" fill="none" xmlns="http://www.w3.org/2000/svg">
<g clip-path="url(#clip0_321_1030)">
<path d="M1133.83 76.4365C1134.77 76.4368 1135.53 77.1956 1135.53 78.1348V197.594C1135.53 206.336 1136.76 213.813 1139.18 220.026C1141.6 226.24 1145.33 230.936 1150.32 234.078C1155.3 237.221 1161.67 238.811 1169.48 238.811C1175.8 238.811 1181.48 237.546 1186.47 234.981C1191.46 232.417 1195.73 228.84 1199.27 224.217C1202.78 219.629 1205.53 214.391 1207.48 208.539C1209.43 202.723 1210.41 196.509 1210.41 189.936H1210.37V78.1709C1210.37 77.2317 1211.13 76.4728 1212.07 76.4727H1255.42C1256.36 76.4727 1257.12 77.2316 1257.12 78.1709V270.382C1257.12 271.321 1256.36 272.079 1255.42 272.079H1212.07C1211.13 272.079 1210.37 271.321 1210.37 270.382V251.562C1210.37 249.9 1208.23 249.249 1207.29 250.586C1202.09 257.919 1195.98 263.772 1189 268.034C1178.66 274.355 1166.77 277.534 1153.39 277.534C1140.74 277.534 1129.49 274.933 1119.62 269.695C1109.78 264.457 1102.16 256.619 1096.8 246.144C1091.46 235.668 1088.78 222.664 1088.78 207.095V78.1348C1088.78 77.1955 1089.54 76.4366 1090.48 76.4365H1133.83ZM975.245 70.9131C990.072 70.9131 1003.66 73.6944 1015.96 79.293C1028.25 84.8922 1038.44 93.2372 1046.47 104.291C1054.18 114.947 1059.09 128.096 1061.19 143.772C1061.33 144.82 1060.5 145.725 1059.49 145.725H1016.06C1015.24 145.725 1014.54 145.109 1014.4 144.314C1012.12 132.394 1007.5 123.653 1000.59 118.162C993.399 112.455 984.938 109.601 975.212 109.601C960.605 109.601 949.578 115.164 942.165 126.217C934.752 137.307 931.025 153.419 931.025 174.587C931.025 195.249 934.899 211.143 942.705 222.196C950.518 233.286 961.832 238.813 976.691 238.813C986.671 238.813 995.058 236.104 1001.89 230.613C1008.44 225.375 1012.99 217.464 1015.49 206.844C1015.67 206.085 1016.32 205.544 1017.12 205.544H1060.82C1061.91 205.544 1062.74 206.555 1062.52 207.603C1057.97 231.155 1047.99 248.603 1032.59 259.945C1016.75 271.613 997.771 277.465 975.604 277.465C956.372 277.465 939.852 273.239 926.112 264.858C912.339 256.478 901.706 244.593 894.152 229.276C886.592 213.961 882.833 195.718 882.833 174.55C882.833 152.407 886.593 133.623 894.152 118.162C901.706 102.702 912.406 90.9606 926.292 82.9414C940.178 74.9222 956.479 70.9131 975.245 70.9131ZM1338.69 6.75781C1339.63 6.75802 1340.39 7.51686 1340.39 8.45605V93.3096C1340.39 94.8988 1342.37 95.621 1343.39 94.3564C1346.75 90.2027 1350.44 86.5185 1354.45 83.376C1365.05 75.1394 1377.52 70.9854 1391.87 70.9854C1408.9 70.9854 1423.58 75.1034 1435.87 83.376C1448.17 91.6479 1457.61 103.424 1464.19 118.668C1470.77 134.02 1474.05 152.371 1474.05 173.792C1474.05 207.133 1466.57 232.745 1451.6 250.625C1436.63 268.506 1416.71 277.465 1391.87 277.465C1371.84 277.465 1355.65 270.024 1343.35 255.178C1342.37 253.949 1340.39 254.671 1340.39 256.261V270.312C1340.39 271.252 1339.63 272.011 1338.69 272.011H1295.33C1294.39 272.011 1293.63 271.252 1293.63 270.312V8.45605C1293.63 7.51683 1294.39 6.75798 1295.33 6.75781H1338.69ZM764.748 70.9473C783.734 70.9473 800.181 75.0661 814.067 83.3379C827.947 91.6097 838.654 103.277 846.207 118.377C853.767 133.44 857.526 151.574 857.526 172.742V181.99C857.526 182.929 856.766 183.688 855.826 183.688H721.255C720.282 183.688 719.482 184.555 719.555 185.53C720.781 200.955 724.689 213.273 731.342 222.376C739.515 233.574 751.262 239.173 766.595 239.173C777.548 239.173 786.734 236.609 794.181 231.516C801.341 226.603 806.367 219.233 809.367 209.371C809.581 208.649 810.201 208.144 810.954 208.144H856.8C857.92 208.144 858.753 209.191 858.467 210.274C852.934 231.839 842.194 248.348 826.287 259.764C809.834 271.576 789.947 277.464 766.561 277.464C747.068 277.464 730.148 273.346 715.795 265.073C701.442 256.801 690.416 244.953 682.749 229.492C675.082 214.068 671.249 195.753 671.249 174.585C671.249 152.442 675.082 133.657 682.749 118.196C690.416 102.736 701.295 90.9957 715.435 82.9766C729.568 74.9573 745.988 70.9473 764.748 70.9473ZM1588.96 70.9473C1607.94 70.9473 1624.39 75.0661 1638.28 83.3379C1652.16 91.6097 1662.86 103.277 1670.42 118.377C1677.98 133.44 1681.74 151.574 1681.74 172.742V181.99C1681.74 182.929 1680.98 183.688 1680.04 183.688H1545.46C1544.48 183.688 1543.69 184.555 1543.76 185.53C1544.99 200.955 1548.9 213.273 1555.55 222.376C1563.72 233.574 1575.47 239.173 1590.8 239.173C1601.76 239.173 1610.94 236.609 1618.39 231.516C1625.51 226.603 1630.57 219.233 1633.58 209.371C1633.79 208.649 1634.4 208.144 1635.16 208.144H1681.01C1682.13 208.144 1682.96 209.191 1682.68 210.274C1677.14 231.839 1666.4 248.348 1650.5 259.764C1634.04 271.576 1614.16 277.464 1590.76 277.464C1571.28 277.464 1554.36 273.346 1540 265.073C1525.65 256.801 1514.62 244.953 1506.96 229.492C1499.29 214.068 1495.46 195.753 1495.46 174.585C1495.46 152.442 1499.29 133.657 1506.96 118.196C1514.62 102.736 1525.5 90.9958 1539.64 82.9766C1553.78 74.9574 1570.19 70.9473 1588.96 70.9473ZM447.591 76.4395C448.531 76.4395 449.289 77.1974 449.29 78.1367V270.348C449.29 271.287 448.531 272.049 447.591 272.049H404.239C403.3 272.048 402.542 271.286 402.542 270.348V78.1367C402.543 77.1982 403.3 76.4402 404.239 76.4395H447.591ZM516.62 76.4082C517.56 76.4083 518.573 77.1307 518.862 78.0332L563.083 212.737C563.37 213.604 563.77 215.086 563.983 215.988L568.25 233.941C568.47 234.844 568.79 234.844 569.01 233.941L573.097 216.023C573.31 215.121 573.709 213.676 573.996 212.773L618.216 78.0332C618.509 77.1307 619.516 76.4082 620.456 76.4082H664.929C665.869 76.4082 666.375 77.1299 666.049 77.9971L596.703 270.426C596.376 271.292 595.37 272.015 594.43 272.015H540.121C539.181 272.014 538.169 271.292 537.844 270.426L468.497 77.9971C468.172 77.1299 468.678 76.4082 469.618 76.4082H516.62ZM379.296 6.79297C380.236 6.79305 380.995 7.55194 380.995 8.49121V41.5068C380.995 42.4461 380.236 43.205 379.296 43.2051H364.219C350.769 43.2051 345.021 48.9494 345.021 62.3506C345.021 62.4198 345.056 74.1233 345.092 74.7764C345.128 75.6795 345.887 76.4021 346.791 76.4023H379.296C380.236 76.4024 380.995 77.1612 380.995 78.0996V109.744C380.995 110.683 380.236 111.442 379.296 111.442H346.9C345.96 111.442 345.201 112.2 345.201 113.14V270.312C345.201 271.251 344.442 272.01 343.502 272.01H300.15C299.211 272.01 298.451 271.251 298.451 270.312V113.14C298.451 112.2 297.692 111.442 296.752 111.442H276.396C275.456 111.442 274.697 110.683 274.697 109.744V78.0996C274.698 77.1612 275.457 76.4023 276.396 76.4023H296.752C297.692 76.4023 298.451 75.6443 298.451 74.7051V60.4365C298.451 25.1803 315.336 6.79297 353.3 6.79297H379.296ZM1.4082 95.7598C93.619 96.7164 168.434 173.771 169.321 268.653C169.363 269.653 168.561 270.437 167.633 270.437H97.292C96.4055 270.436 95.6455 269.697 95.6455 268.74C95.6455 214.733 54.4372 171.554 1.36523 171.554C0.436768 171.553 -0.323242 170.814 -0.323242 169.857V97.499C-0.32322 96.5424 0.478941 95.7598 1.4082 95.7598ZM1383.45 109.637C1369.31 109.637 1358.61 115.128 1351.31 126.073C1344 137.018 1340.35 152.949 1340.35 173.863C1340.35 194.815 1344.04 210.854 1351.49 222.053C1358.9 233.25 1369.57 238.85 1383.45 238.85C1397.33 238.85 1407.93 233.251 1415.23 222.053C1422.53 210.854 1426.19 194.779 1426.19 173.863C1426.19 153.201 1422.46 137.344 1415.05 126.254C1407.6 115.164 1397.08 109.637 1383.45 109.637ZM764.788 109.274C749.928 109.274 738.575 114.874 730.802 126.071C725.988 132.971 722.701 141.821 720.854 152.55C720.675 153.561 721.508 154.537 722.555 154.537H806.728C807.774 154.537 808.607 153.598 808.427 152.55C806.58 141.785 803.294 132.863 798.374 125.892C790.601 114.802 779.394 109.275 764.788 109.274ZM1589 109.274C1574.14 109.274 1562.82 114.874 1555.01 126.071C1550.2 132.971 1546.91 141.821 1545.06 152.55C1544.88 153.561 1545.72 154.537 1546.76 154.537H1630.94C1631.98 154.537 1632.82 153.598 1632.64 152.55C1630.79 141.785 1627.5 132.863 1622.58 125.892C1614.81 114.802 1603.6 109.274 1589 109.274ZM167.675 -0.34082C168.603 -0.34082 169.363 0.441805 169.363 1.39844V69.0166C169.363 69.9731 168.603 70.7559 167.675 70.7559H1.4082C0.479019 70.7558 -0.2811 69.9731 -0.28125 69.0166V1.39844C-0.281225 0.441945 0.436792 -0.340592 1.36523 -0.34082H167.675ZM447.591 6.79297C448.531 6.79297 449.289 7.55093 449.29 8.49023V50.3564C449.29 51.2951 448.531 52.0566 447.591 52.0566H404.239C403.3 52.0559 402.542 51.295 402.542 50.3564V8.49023C402.543 7.55167 403.3 6.79376 404.239 6.79297H447.591Z" fill="url(#paint0_linear_321_1030)"/>
</g>
<defs>
<linearGradient id="paint0_linear_321_1030" x1="866" y1="3.30048e-06" x2="866" y2="278" gradientUnits="userSpaceOnUse">
<stop stop-color="#36393B"/>
<stop offset="1" stop-color="#17191B"/>
</linearGradient>
<clipPath id="clip0_321_1030">
<rect width="1683" height="278" fill="white"/>
</clipPath>
</defs>
</svg>
