<svg width="410" height="410" viewBox="0 0 410 410" fill="none" xmlns="http://www.w3.org/2000/svg">
<g clip-path="url(#clip0_359_1007)">
<rect width="409.646" height="409.646" fill="url(#paint0_radial_359_1007)"/>
<g filter="url(#filter0_fn_359_1007)">
<path fill-rule="evenodd" clip-rule="evenodd" d="M28.1097 204.827C27.7049 205.029 27.4458 205.497 27.4458 206.178V305.315C27.4458 306.626 28.3537 308.162 29.4633 308.803C92.8656 345.408 142.094 432.991 142.094 506.986C142.094 508.297 143.002 509.834 144.062 510.446L228.093 558.961C228.626 559.269 229.124 559.309 229.492 559.113L381.529 471.335C381.161 471.531 380.663 471.49 380.13 471.183L296.099 422.667C295.039 422.055 294.131 420.518 294.131 419.208C294.131 345.212 244.902 257.63 181.5 221.025C180.39 220.384 179.483 218.847 179.483 217.537V118.4C179.483 117.718 179.742 117.251 180.146 117.049L28.1097 204.827Z" fill="url(#paint1_radial_359_1007)"/>
<path fill-rule="evenodd" clip-rule="evenodd" d="M229.492 559.112C229.891 558.9 230.137 558.41 230.111 557.683C229.052 427.073 139.674 269.899 29.5139 204.988C28.9813 204.68 28.4835 204.64 28.1099 204.826L180.147 117.048C180.52 116.861 181.018 116.902 181.551 117.209C291.711 182.121 381.089 339.295 382.148 469.904C382.174 470.632 381.928 471.122 381.529 471.334L229.492 559.112Z" fill="url(#paint2_radial_359_1007)"/>
<path d="M27.4962 74.5411V167.184C27.4962 168.494 28.4041 170.091 29.5138 170.732L228.144 285.411C229.254 286.051 230.161 285.503 230.161 284.193V191.55C230.161 190.239 229.254 188.643 228.144 188.002L29.4633 73.2937C28.3537 72.6531 27.4962 73.2304 27.4962 74.5411Z" fill="url(#paint3_radial_359_1007)"/>
<path d="M29.5138 204.989C28.4041 204.348 27.4458 204.867 27.4458 206.178V305.315C27.4458 306.625 28.3537 308.162 29.4633 308.803C92.8656 345.408 142.094 432.991 142.094 506.986C142.094 508.297 143.002 509.834 144.061 510.445L228.093 558.961C229.203 559.602 230.161 559.083 230.111 557.683C229.052 427.074 139.673 269.9 29.5138 204.989Z" fill="url(#paint4_radial_359_1007)"/>
<path fill-rule="evenodd" clip-rule="evenodd" d="M229.524 285.558C229.915 285.349 230.161 284.873 230.161 284.192V191.549C230.161 190.238 229.253 188.642 228.143 188.001L29.4626 73.2927C28.93 72.9852 28.4554 72.9583 28.106 73.1584L180.143 -14.62C180.492 -14.8201 180.967 -14.7932 181.499 -14.4857L380.18 100.223C381.29 100.863 382.197 102.46 382.197 103.77V196.413C382.197 197.095 381.952 197.57 381.56 197.779L229.524 285.558Z" fill="url(#paint5_radial_359_1007)"/>
</g>
</g>
<defs>
<filter id="filter0_fn_359_1007" x="-10.7582" y="-52.952" width="431.159" height="650.388" filterUnits="userSpaceOnUse" color-interpolation-filters="sRGB">
<feFlood flood-opacity="0" result="BackgroundImageFix"/>
<feBlend mode="normal" in="SourceGraphic" in2="BackgroundImageFix" result="shape"/>
<feGaussianBlur stdDeviation="19.102" result="effect1_foregroundBlur_359_1007"/>
<feTurbulence type="fractalNoise" baseFrequency="3.6645381450653076 3.6645381450653076" stitchTiles="stitch" numOctaves="3" result="noise" seed="5893" />
<feColorMatrix in="noise" type="luminanceToAlpha" result="alphaNoise" />
<feComponentTransfer in="alphaNoise" result="coloredNoise1">
<feFuncA type="discrete" tableValues="0 0 0 0 1 1 1 1 1 1 1 1 1 1 1 1 1 1 1 1 1 1 1 1 1 1 1 1 1 1 1 1 1 1 1 1 1 1 1 1 1 1 1 1 1 0 0 0 0 0 0 0 0 0 0 0 0 0 0 0 0 0 0 0 0 0 0 0 0 0 0 0 0 0 0 0 0 0 0 0 0 0 0 0 0 0 0 0 0 0 0 0 0 0 0 0 0 0 0 0 "/>
</feComponentTransfer>
<feComposite operator="in" in2="effect1_foregroundBlur_359_1007" in="coloredNoise1" result="noise1Clipped" />
<feFlood flood-color="rgba(23, 25, 27, 0.2)" result="color1Flood" />
<feComposite operator="in" in2="noise1Clipped" in="color1Flood" result="color1" />
<feMerge result="effect2_noise_359_1007">
<feMergeNode in="effect1_foregroundBlur_359_1007" />
<feMergeNode in="color1" />
</feMerge>
</filter>
<radialGradient id="paint0_radial_359_1007" cx="0" cy="0" r="1" gradientTransform="matrix(462.695 351.271 -1223.33 1620.2 -59.3986 53.2539)" gradientUnits="userSpaceOnUse">
<stop stop-color="#7D2A14"/>
<stop offset="0.0718118" stop-color="#7D2A14"/>
<stop offset="0.757402" stop-color="#EC865A"/>
<stop offset="0.926961" stop-color="#F3BD79"/>
</radialGradient>
<radialGradient id="paint1_radial_359_1007" cx="0" cy="0" r="1" gradientTransform="matrix(-127.48 -423.533 1184.04 -560.242 230.46 559.233)" gradientUnits="userSpaceOnUse">
<stop stop-color="#7D2A14"/>
<stop offset="0.165774" stop-color="#7D2A14"/>
<stop offset="0.757402" stop-color="#EC865A"/>
<stop offset="0.926961" stop-color="#F3BD79"/>
</radialGradient>
<radialGradient id="paint2_radial_359_1007" cx="0" cy="0" r="1" gradientTransform="matrix(-127.465 -423.526 1183.9 -560.233 231.1 559.112)" gradientUnits="userSpaceOnUse">
<stop stop-color="#7D2A14"/>
<stop offset="0.165774" stop-color="#7D2A14"/>
<stop offset="0.757402" stop-color="#EC865A"/>
<stop offset="0.926961" stop-color="#F3BD79"/>
</radialGradient>
<radialGradient id="paint3_radial_359_1007" cx="0" cy="0" r="1" gradientTransform="matrix(-72.9837 -397.477 677.874 -78.667 143.673 510.221)" gradientUnits="userSpaceOnUse">
<stop stop-color="#7D2A14"/>
<stop offset="0.165774" stop-color="#7D2A14"/>
<stop offset="0.757402" stop-color="#EC865A"/>
<stop offset="0.926961" stop-color="#F3BD79"/>
</radialGradient>
<radialGradient id="paint4_radial_359_1007" cx="0" cy="0" r="1" gradientTransform="matrix(-72.9837 -397.477 677.874 -78.667 143.673 510.221)" gradientUnits="userSpaceOnUse">
<stop stop-color="#7D2A14"/>
<stop offset="0.165774" stop-color="#7D2A14"/>
<stop offset="0.757402" stop-color="#EC865A"/>
<stop offset="0.926961" stop-color="#F3BD79"/>
</radialGradient>
<radialGradient id="paint5_radial_359_1007" cx="0" cy="0" r="1" gradientTransform="matrix(-127.483 -287.639 1184.07 -380.484 231.125 285.558)" gradientUnits="userSpaceOnUse">
<stop stop-color="#7D2A14"/>
<stop offset="0.165774" stop-color="#7D2A14"/>
<stop offset="0.757402" stop-color="#EC865A"/>
<stop offset="0.926961" stop-color="#F3BD79"/>
</radialGradient>
<clipPath id="clip0_359_1007">
<rect width="409.646" height="409.646" fill="white"/>
</clipPath>
</defs>
</svg>
