<svg width="400" height="400" viewBox="0 0 400 400" fill="none" xmlns="http://www.w3.org/2000/svg">
<g clip-path="url(#clip0_2751_922)">
<rect width="400" height="400" rx="200" fill="#17191B"/>
<rect width="409.646" height="409.646" transform="translate(-5 -5)" fill="#EBE9DE"/>
<path d="M137.178 101.561V151.376C137.178 152.081 137.741 152.657 138.429 152.657H261.598C262.286 152.657 262.849 152.081 262.849 151.376V101.561C262.849 100.856 262.286 100.279 261.598 100.279H138.398C137.709 100.279 137.178 100.856 137.178 101.561Z" fill="#17191B"/>
<path d="M138.429 171.078C137.741 171.078 137.146 171.654 137.146 172.359V225.666C137.146 226.371 137.709 226.916 138.398 226.916C177.713 226.916 208.24 258.727 208.24 298.515C208.24 299.22 208.802 299.764 209.459 299.764H261.567C262.255 299.764 262.849 299.188 262.818 298.451C262.161 228.549 206.738 171.782 138.429 171.078Z" fill="#17191B"/>
</g>
<defs>
<clipPath id="clip0_2751_922">
<rect width="400" height="400" rx="200" fill="white"/>
</clipPath>
</defs>
</svg>
