<svg preserveAspectRatio="none" width="100%" height="100%" overflow="visible" style="display: block;" viewBox="0 0 16.0032 24" fill="none" xmlns="http://www.w3.org/2000/svg">
<g id="image 22 [Vectorized]" clip-path="url(#clip0_0_4)">
<path id="Vector" d="M3.79116 0H8.00615H12.212L12.2197 0.001734C12.3237 0.0238292 12.437 0.0223011 12.5429 0.0371783C13.6594 0.193989 14.8601 0.831199 15.5719 2.19593C15.7599 2.55641 15.9039 3.00904 15.9638 3.45756C15.9823 3.59594 15.9872 3.73587 16.0032 3.86176V4.13527C15.9805 4.37116 15.9722 4.53657 15.9263 4.77325C15.7793 5.53112 15.4112 6.19169 14.9919 6.65628C14.1703 7.56656 13.1765 7.93844 12.1704 7.99762L11.8017 8.00005L11.7171 8.0061C11.6195 7.99017 11.416 7.99938 11.3086 7.99942L10.5373 7.9996L8.00096 8.00008L5.5663 8.00034C4.99549 8.00041 4.38849 8.01699 3.8203 7.99841C3.6352 7.98448 3.45067 7.96799 3.26324 7.93252C1.99394 7.69226 0.476457 6.72772 0.0690256 4.73413C0.0310187 4.54816 0.0165243 4.32853 0 4.13536V3.85941C0.0174362 3.72934 0.0194702 3.58686 0.0399115 3.45256C0.338375 1.49179 1.76583 0.454966 2.975 0.132617C3.13481 0.090013 3.2987 0.060293 3.46024 0.0370221C3.56742 0.0210945 3.67878 0.0239111 3.78344 0.00172956L3.79116 0Z" fill="var(--fill-0, #F24E1E)"/>
<path id="Vector_2" d="M8.00604 0H12.2119L12.2196 0.001734C12.3236 0.0238292 12.4369 0.0223011 12.5428 0.0371783C13.6593 0.193989 14.86 0.831199 15.5718 2.19593C15.7598 2.55641 15.9038 3.00904 15.9637 3.45756C15.9822 3.59594 15.9871 3.73587 16.0031 3.86176V4.13527C15.9804 4.37116 15.9721 4.53657 15.9262 4.77324C15.7792 5.53112 15.4111 6.19169 14.9918 6.65628C14.1702 7.56656 13.1764 7.93844 12.1703 7.99762L11.8016 8.00004C11.7504 7.98546 11.5318 7.99114 11.4671 7.99121L10.7476 7.99211L8.00572 7.99185C8.01686 7.11809 8.00604 6.18661 8.00604 5.30897V0Z" fill="var(--fill-0, #FF7262)"/>
<path id="Vector_3" d="M3.82021 7.99844C4.3884 8.01701 4.9954 8.00043 5.56621 8.00037L8.00087 8.00011L8.00113 10.5428L8.00061 11.2999C8.00049 11.4241 7.99658 11.6276 8.00669 11.7446C8.00036 11.9407 8.00343 12.0635 8.00669 12.2557C7.99658 12.3953 8.00042 12.5826 8.00042 12.7271L8.00087 13.5108L8.00093 16.0021L3.85842 16.0009C3.64694 15.9851 3.43607 15.9673 3.22132 15.9241C1.97084 15.6722 0.488859 14.718 0.0750459 12.7647C0.03339 12.568 0.0178266 12.3422 -9.04083e-05 12.138V11.8603C0.019306 11.7164 0.0209256 11.5666 0.0447927 11.4175C0.350377 9.50929 1.73095 8.48345 2.91409 8.14983C3.2259 8.06191 3.50946 8.02932 3.82021 7.99844Z" fill="var(--fill-0, #A259FF)"/>
<path id="Vector_4" d="M3.85842 16.001L8.00093 16.0021V18.6134L8.00125 19.4822C8.00145 19.7338 8.01118 20.0289 7.99095 20.274C7.80742 22.4959 6.15518 23.6106 4.87776 23.9024C4.73286 23.9356 4.58706 23.9595 4.44079 23.9738C4.39388 23.9784 4.20615 23.9888 4.16961 24.0001H3.83209C3.76057 23.9857 3.67822 23.9853 3.60491 23.9777C3.47184 23.9652 3.3391 23.9459 3.20689 23.92C2.42582 23.7624 1.63435 23.3571 0.999994 22.6424C0.527463 22.1102 0.124685 21.3464 0.0287222 20.4535C0.0175629 20.3496 0.00978613 20.2449 -9.04083e-05 20.1407V19.8569C0.0172907 19.6989 0.023899 19.5259 0.0513572 19.3705C0.410268 17.3395 1.9447 16.3312 3.21586 16.0788C3.43759 16.0349 3.64182 16.0179 3.85842 16.001Z" fill="var(--fill-0, #0ACF83)"/>
<path id="Vector_5" d="M11.8016 8.00009L12.1704 7.99766C12.4899 8.02852 12.7791 8.06125 13.1 8.15289C14.2791 8.48965 15.6525 9.51379 15.9579 11.4156C15.9822 11.5668 15.9845 11.7173 16.0031 11.8647V12.1357C15.9843 12.35 15.972 12.5206 15.9336 12.7325C15.7971 13.4877 15.4365 14.1479 15.0247 14.6182C13.9771 15.8142 12.4976 16.1759 11.2154 15.923C10.2009 15.7229 9.0717 15.0574 8.43234 13.8062C8.25221 13.4538 8.12079 13.0595 8.05166 12.6267C8.03201 12.5038 8.02343 12.3586 8.00672 12.2557C8.00346 12.0635 8.00039 11.9407 8.00672 11.7446C8.01569 11.6893 8.01889 11.6234 8.02593 11.5661C8.27353 9.5504 9.73008 8.47043 10.9521 8.13797C11.2116 8.06737 11.4557 8.04222 11.717 8.00614L11.8016 8.00009Z" fill="var(--fill-0, #1ABCFE)"/>
</g>
<defs>
<clipPath id="clip0_0_4">
<rect width="16.0032" height="24" fill="white"/>
</clipPath>
</defs>
</svg>
