<svg width="173" height="21" viewBox="0 0 173 21" fill="none" xmlns="http://www.w3.org/2000/svg">
<path d="M23.1023 15.7966C23.1023 15.8528 23.1483 15.8987 23.2046 15.8987H25.8077C25.864 15.8987 25.9101 15.8528 25.9101 15.7966V4.2766C25.9101 4.22043 25.864 4.17447 25.8077 4.17447H23.2046C23.1483 4.17447 23.1023 4.22043 23.1023 4.2766V15.7966Z" fill="white"/><path d="M23.1023 2.61447C23.1023 2.67064 23.1483 2.71659 23.2046 2.71659H25.8077C25.864 2.71659 25.9101 2.67064 25.9101 2.61447V0.104682C25.9101 0.0485116 25.864 0.00255568 25.8077 0.00255568H23.2046C23.1483 0.00255568 23.1023 0.0485116 23.1023 0.104682V2.61447Z" fill="white"/><path d="M33.3941 12.3472C33.3762 12.4008 33.3532 12.4877 33.3404 12.5438L33.0972 13.6187C33.0844 13.6723 33.0639 13.6723 33.0511 13.6187L32.7952 12.5438C32.7824 12.4902 32.7568 12.4008 32.7389 12.3472L30.0846 4.27404C30.0667 4.22042 30.0079 4.17702 29.9515 4.17702H27.1309C27.0746 4.17702 27.0439 4.22042 27.0644 4.27148L31.2262 15.8017C31.2441 15.8553 31.3055 15.8962 31.3618 15.8962H34.6227C34.679 15.8962 34.7404 15.8528 34.7583 15.8017L38.9201 4.27148C38.938 4.21787 38.9099 4.17702 38.8536 4.17702H36.1865C36.1302 4.17702 36.0714 4.22042 36.0534 4.27404L33.3941 12.3472Z" fill="white"/><path d="M46.6089 13.4706C46.1636 13.777 45.6107 13.9302 44.9529 13.9302C44.0315 13.9302 43.3276 13.5957 42.8362 12.9243C42.4369 12.3779 42.204 11.64 42.1298 10.7183C42.1246 10.6596 42.1733 10.6085 42.2321 10.6085H50.31C50.3663 10.6085 50.4124 10.5626 50.4124 10.5064V9.95234C50.4124 8.6834 50.1846 7.5983 49.7315 6.69447C49.2785 5.79064 48.6361 5.09106 47.8017 4.59574C46.9673 4.10043 45.9818 3.85277 44.8428 3.85277C43.7167 3.85277 42.7312 4.09276 41.884 4.57531C41.0368 5.05531 40.3816 5.76 39.9209 6.68681C39.4602 7.61362 39.2298 8.73957 39.2298 10.0647C39.2298 11.3336 39.4602 12.4315 39.9209 13.3557C40.3816 14.2826 41.042 14.9923 41.9045 15.4877C42.7671 15.983 43.7832 16.2306 44.9529 16.2306C46.3555 16.2306 47.5508 15.8783 48.5362 15.1711C49.4909 14.4868 50.1359 13.4987 50.4661 12.2043C50.4815 12.1404 50.4329 12.0766 50.3663 12.0766H47.6123C47.5687 12.0766 47.5278 12.1072 47.515 12.1506C47.3409 12.7353 47.0389 13.177 46.6089 13.4706ZM42.8055 7.15149C43.2739 6.48 43.9521 6.14553 44.8454 6.14553C45.7233 6.14553 46.3939 6.47745 46.8623 7.14128C47.1567 7.55745 47.3563 8.09361 47.4638 8.73957C47.474 8.80085 47.4254 8.85957 47.3614 8.85957H42.3089C42.2449 8.85957 42.1963 8.80085 42.2065 8.73957C42.3192 8.09617 42.5162 7.56511 42.8055 7.15149Z" fill="white"/><path d="M96.0794 13.4706C95.634 13.777 95.0812 13.9302 94.4234 13.9302C93.502 13.9302 92.7981 13.5957 92.3067 12.9243C91.9074 12.3779 91.6744 11.64 91.6002 10.7183C91.5951 10.6596 91.6437 10.6085 91.7026 10.6085H99.7805C99.8368 10.6085 99.8828 10.5626 99.8828 10.5064V9.95234C99.8828 8.6834 99.655 7.5983 99.202 6.69447C98.749 5.79064 98.1065 5.09106 97.2721 4.59574C96.4377 4.10043 95.4523 3.85277 94.3133 3.85277C93.1871 3.85277 92.2017 4.09276 91.3545 4.57531C90.5073 5.05531 89.8521 5.76 89.3914 6.68681C88.9306 7.61362 88.7003 8.73957 88.7003 10.0647C88.7003 11.3336 88.9306 12.4315 89.3914 13.3557C89.8521 14.2826 90.5124 14.9923 91.375 15.4877C92.2376 15.983 93.2537 16.2306 94.4234 16.2306C95.826 16.2306 97.0213 15.8783 98.0093 15.1711C98.964 14.4868 99.609 13.4987 99.9392 12.2043C99.9545 12.1404 99.9059 12.0766 99.8393 12.0766H97.0853C97.0418 12.0766 97.0008 12.1072 96.988 12.1506C96.8114 12.7353 96.5068 13.177 96.0794 13.4706ZM92.2759 7.15149C92.7443 6.48 93.4226 6.14553 94.3159 6.14553C95.1938 6.14553 95.8644 6.47745 96.3328 7.14128C96.6271 7.55745 96.8268 8.09361 96.9343 8.73957C96.9445 8.80085 96.8959 8.85957 96.8319 8.85957H91.7794C91.7154 8.85957 91.6668 8.80085 91.677 8.73957C91.7896 8.09617 91.9867 7.56511 92.2759 7.15149Z" fill="white"/><path d="M59.0789 13.417C58.6694 13.7438 58.1652 13.9098 57.5662 13.9098C56.6755 13.9098 55.9947 13.5779 55.5263 12.914C55.0579 12.2502 54.825 11.3004 54.825 10.0596C54.825 8.79064 55.0477 7.82553 55.493 7.1617C55.9384 6.49787 56.6013 6.16596 57.4767 6.16596C58.0602 6.16596 58.5696 6.33702 58.9996 6.67915C59.4142 7.00851 59.6906 7.53191 59.8289 8.24681C59.8391 8.29532 59.8801 8.33107 59.9287 8.33107H62.5343C62.5957 8.33107 62.6443 8.27489 62.6367 8.21617C62.5112 7.27659 62.2169 6.48766 61.7536 5.84936C61.2724 5.18553 60.6607 4.68766 59.9236 4.35064C59.1864 4.01617 58.3699 3.84766 57.4792 3.84766C56.353 3.84766 55.3753 4.08766 54.5409 4.57021C53.7065 5.05021 53.064 5.75489 52.611 6.6817C52.158 7.60851 51.9302 8.73447 51.9302 10.0596C51.9302 11.3285 52.1554 12.4213 52.611 13.3404C53.064 14.2596 53.7039 14.9694 54.5306 15.4723C55.3574 15.9753 56.3454 16.2281 57.5023 16.2281C58.8332 16.2281 59.9722 15.8783 60.9218 15.1787C61.8458 14.4996 62.4447 13.4528 62.7186 12.0434C62.7314 11.9796 62.6827 11.9209 62.6187 11.9209H59.9952C59.9492 11.9209 59.9082 11.954 59.898 12C59.7418 12.6281 59.4705 13.1004 59.0789 13.417Z" fill="white"/><path d="M71.5924 10.9787C71.5924 11.3719 71.5336 11.7447 71.4184 12.0945C71.3006 12.4443 71.1368 12.7583 70.9244 13.034C70.712 13.3123 70.456 13.5268 70.1565 13.68C69.8571 13.8332 69.5167 13.9098 69.1378 13.9098C68.6695 13.9098 68.2855 13.8153 67.9861 13.6264C67.6866 13.4374 67.4639 13.1566 67.318 12.7838C67.1721 12.4111 67.0979 11.9643 67.0979 11.4383V4.27915C67.0979 4.22298 67.0518 4.17702 66.9955 4.17702H64.3925C64.3362 4.17702 64.2901 4.22298 64.2901 4.27915V12.0077C64.2901 12.9421 64.4514 13.7208 64.7713 14.3489C65.0938 14.977 65.5494 15.4468 66.1406 15.7608C66.7319 16.0749 67.4076 16.2306 68.1678 16.2306C68.9715 16.2306 69.683 16.0417 70.305 15.6613C70.7248 15.406 71.0908 15.0562 71.403 14.6145C71.4593 14.5328 71.5873 14.5736 71.5873 14.6732V15.7992C71.5873 15.8553 71.6334 15.9013 71.6897 15.9013H74.2927C74.349 15.9013 74.3951 15.8553 74.3951 15.7992V4.27915C74.3951 4.22298 74.349 4.17702 74.2927 4.17702H71.6897C71.6334 4.17702 71.5873 4.22298 71.5873 4.27915V10.9787H71.5924Z" fill="white"/><path d="M85.1246 4.59319C84.3875 4.09787 83.507 3.85021 82.4832 3.85021C81.6206 3.85021 80.8707 4.09787 80.2359 4.59319C79.9953 4.78213 79.7727 5.0017 79.573 5.25192C79.5142 5.32596 79.3913 5.28511 79.3913 5.18809V0.102126C79.3913 0.0459559 79.3452 0 79.2889 0H76.6859C76.6296 0 76.5835 0.0459559 76.5835 0.102126V15.7966C76.5835 15.8528 76.6296 15.8987 76.6859 15.8987H79.2889C79.3452 15.8987 79.3913 15.8528 79.3913 15.7966V14.954C79.3913 14.8596 79.509 14.8162 79.5705 14.8902C80.3076 15.7813 81.2802 16.2255 82.4832 16.2255C83.9728 16.2255 85.1681 15.6894 86.0665 14.617C86.9649 13.5447 87.4154 12.0102 87.4154 10.0136C87.4154 8.73192 87.2183 7.62894 86.8242 6.71234C86.43 5.79575 85.8643 5.08851 85.1246 4.59319ZM83.8858 12.9038C83.4481 13.5753 82.8108 13.9098 81.979 13.9098C81.1471 13.9098 80.5073 13.5753 80.0619 12.9038C79.6165 12.2323 79.3939 11.2698 79.3939 10.0162C79.3939 8.76255 79.614 7.80766 80.0517 7.15149C80.4893 6.49532 81.1343 6.16851 81.9815 6.16851C82.8006 6.16851 83.4328 6.50042 83.8781 7.16425C84.3235 7.82808 84.5462 8.78042 84.5462 10.0187C84.5436 11.2698 84.3261 12.2323 83.8858 12.9038Z" fill="white"/><path d="M20.8012 2.18553H21.7073C21.7636 2.18553 21.8097 2.13958 21.8097 2.08341V0.104682C21.8097 0.0485116 21.7636 0.00255568 21.7073 0.00255568H20.146C17.8655 0.00255568 16.8519 1.10553 16.8519 3.21957V4.07489C16.8519 4.13106 16.8058 4.17702 16.7495 4.17702H15.5286C15.4723 4.17702 15.4262 4.22298 15.4262 4.27915V6.17617C15.4262 6.23234 15.4723 6.2783 15.5286 6.2783H16.7495C16.8058 6.2783 16.8519 6.32425 16.8519 6.38042V15.7992C16.8519 15.8553 16.898 15.9013 16.9543 15.9013H19.5573C19.6136 15.9013 19.6597 15.8553 19.6597 15.7992V6.38042C19.6597 6.32425 19.7058 6.2783 19.7621 6.2783H21.7073C21.7636 6.2783 21.8097 6.23234 21.8097 6.17617V4.27915C21.8097 4.22298 21.7636 4.17702 21.7073 4.17702H19.757C19.7032 4.17702 19.6571 4.13361 19.6546 4.08C19.652 4.0417 19.652 3.33447 19.652 3.33447C19.6495 2.53021 19.995 2.18553 20.8012 2.18553Z" fill="white"/><path d="M113.558 13.1106V8.5251C113.558 7.63149 113.4 6.85276 113.082 6.18893C112.765 5.5251 112.284 5.01446 111.641 4.65446C110.999 4.29446 110.185 4.11319 109.202 4.11319C108.278 4.11319 107.485 4.26893 106.829 4.57787C106.172 4.88681 105.652 5.33872 105.268 5.92851C104.905 6.49021 104.654 7.16426 104.518 7.94809C104.508 8.00936 104.557 8.06809 104.621 8.06809H105.823C105.872 8.06809 105.916 8.03234 105.923 7.98383C106.062 7.17447 106.379 6.53106 106.875 6.05872C107.387 5.56851 108.122 5.32341 109.077 5.32341C110.147 5.32341 110.927 5.60425 111.419 6.16596C111.91 6.72766 112.156 7.53702 112.156 8.58893V8.87744C112.156 8.93361 112.11 8.97957 112.053 8.97957C110.943 8.98723 109.978 9.02808 109.164 9.10723C108.268 9.19404 107.416 9.37532 106.607 9.64851C105.783 9.9217 105.161 10.32 104.743 10.8383C104.324 11.3566 104.114 12.0051 104.114 12.7838C104.114 13.4911 104.272 14.086 104.59 14.5685C104.907 15.0511 105.36 15.4162 105.944 15.6613C106.53 15.9064 107.218 16.0289 108.014 16.0289C108.549 16.0289 109.087 15.9268 109.63 15.7251C110.172 15.5234 110.684 15.217 111.168 14.806C111.47 14.5481 111.741 14.2417 111.979 13.8843C112.035 13.8026 112.161 13.8383 112.163 13.9379C112.171 14.1906 112.186 14.446 112.207 14.7089C112.24 15.1149 112.327 15.457 112.471 15.7353C112.489 15.7685 112.524 15.7915 112.563 15.7915H113.832C113.906 15.7915 113.955 15.7149 113.924 15.646C113.802 15.3753 113.715 15.0587 113.658 14.6987C113.589 14.2749 113.558 13.7464 113.558 13.1106ZM112.148 10.8408C112.148 11.5481 111.971 12.2043 111.616 12.8094C111.262 13.4145 110.781 13.9021 110.175 14.2698C109.568 14.6374 108.887 14.8213 108.137 14.8213C107.357 14.8213 106.727 14.6374 106.251 14.2698C105.775 13.9021 105.534 13.394 105.534 12.7455C105.534 12.3574 105.629 11.9949 105.816 11.6655C106.003 11.3336 106.343 11.0451 106.835 10.8C107.326 10.5549 108.02 10.3685 108.915 10.2383C109.76 10.1157 110.838 10.0519 112.146 10.0443V10.8408H112.148Z" fill="white"/><path d="M123.843 5.71659C123.843 5.81617 123.712 5.85702 123.656 5.77276C123.594 5.6834 123.558 5.63234 123.515 5.57361C122.762 4.54212 121.703 4.11319 120.198 4.11319C118.767 4.11319 117.643 4.61873 116.827 5.62724C116.01 6.63575 115.601 8.1651 115.601 10.0826C115.601 11.3081 115.834 12.4264 116.202 13.3047C116.571 14.1855 117.098 14.8596 117.784 15.3268C118.47 15.7966 119.292 16.0289 120.244 16.0289C121.631 16.0289 122.729 15.5285 123.538 14.5251C123.594 14.4562 123.648 14.3847 123.699 14.3106C123.756 14.2289 123.883 14.2672 123.883 14.3668V16.3736C123.883 17.5404 123.61 18.3983 123.059 18.9472C122.509 19.4962 121.751 19.7694 120.784 19.7694C119.86 19.7694 119.09 19.5396 118.475 19.0774C117.881 18.6306 117.513 18.0026 117.372 17.1932C117.364 17.1447 117.323 17.1089 117.272 17.1089H116.069C116.005 17.1089 115.957 17.1677 115.967 17.2289C116.182 18.4366 116.704 19.3532 117.528 19.9736C118.381 20.6145 119.417 20.9336 120.733 20.9336C121.585 20.9336 122.399 20.7728 123.08 20.4485C123.758 20.1243 124.298 19.6238 124.695 18.9447C125.092 18.2681 125.291 17.3949 125.291 16.3277L125.243 4.44766C125.243 4.39148 125.197 4.34553 125.14 4.34553H123.935C123.878 4.34553 123.832 4.39148 123.832 4.44766V5.71659H123.843ZM123.023 13.6085C122.445 14.4153 121.6 14.8187 120.487 14.8187C119.404 14.8187 118.565 14.4128 117.974 13.5957C117.38 12.7813 117.037 11.566 117.037 10.08C117.037 8.56595 117.329 7.34042 117.915 6.53362C118.501 5.72681 119.343 5.32341 120.441 5.32341C121.524 5.32341 122.363 5.73447 122.957 6.55659C123.548 7.37872 123.845 8.58893 123.845 10.0596C123.843 11.5762 123.599 12.8017 123.023 13.6085Z" fill="white"/><path d="M134.976 14.1268C134.362 14.5889 133.599 14.8187 132.688 14.8187C131.503 14.8187 130.582 14.4051 129.924 13.5753C129.315 12.8068 128.992 11.7498 128.946 10.4068C128.944 10.3481 128.992 10.2996 129.049 10.2996H137.528C137.585 10.2996 137.631 10.2536 137.631 10.1974V9.90894C137.631 8.69872 137.428 7.66468 137.024 6.80681C136.62 5.94894 136.041 5.28511 135.289 4.81787C134.536 4.35064 133.633 4.11574 132.578 4.11574C131.536 4.11574 130.638 4.34553 129.88 4.80766C129.123 5.26978 128.537 5.93872 128.125 6.81957C127.713 7.69787 127.508 8.78809 127.508 10.0851C127.508 11.326 127.713 12.3881 128.125 13.274C128.537 14.16 129.128 14.8417 129.904 15.3166C130.676 15.7915 131.606 16.0289 132.688 16.0289C133.945 16.0289 135.015 15.7047 135.898 15.0562C136.75 14.4281 137.341 13.4757 137.667 12.1991C137.682 12.1353 137.633 12.0715 137.567 12.0715H136.323C136.277 12.0715 136.238 12.1021 136.226 12.1481C135.99 13.0187 135.575 13.6774 134.976 14.1268ZM129.883 6.55915C130.513 5.73702 131.411 5.32595 132.581 5.32595C133.722 5.32595 134.61 5.73447 135.248 6.54893C135.752 7.19489 136.051 8.05021 136.156 9.10723C136.162 9.16595 136.115 9.21957 136.054 9.21957H129.092C129.031 9.21957 128.985 9.16595 128.99 9.10723C129.102 8.0451 129.397 7.19489 129.883 6.55915Z" fill="white"/><path d="M147.175 4.58043C146.612 4.27149 145.918 4.11574 145.094 4.11574C144.27 4.11574 143.536 4.30213 142.893 4.67745C142.358 4.98894 141.91 5.42042 141.552 5.97191C141.496 6.05617 141.365 6.01787 141.365 5.9183V4.45277C141.365 4.3966 141.319 4.35064 141.263 4.35064H140.057C140.001 4.35064 139.955 4.3966 139.955 4.45277V15.6894C139.955 15.7455 140.001 15.7915 140.057 15.7915H141.263C141.319 15.7915 141.365 15.7455 141.365 15.6894V8.95659C141.365 8.5251 141.442 8.09106 141.593 7.65957C141.744 7.22809 141.961 6.83489 142.243 6.48C142.525 6.12766 142.875 5.8417 143.295 5.62468C143.715 5.40766 144.191 5.30043 144.726 5.30043C145.376 5.30043 145.903 5.43319 146.307 5.70127C146.712 5.96936 147.016 6.33702 147.219 6.80425C147.421 7.27404 147.523 7.81787 147.523 8.43575V15.6868C147.523 15.743 147.569 15.7889 147.626 15.7889H148.808C148.864 15.7889 148.911 15.743 148.911 15.6868V8.13702C148.911 7.27149 148.762 6.54127 148.465 5.94127C148.168 5.34383 147.741 4.88936 147.175 4.58043Z" fill="white"/><path d="M158.196 14.1166C157.603 14.5864 156.873 14.8187 156.008 14.8187C154.838 14.8187 153.93 14.4077 153.287 13.5855C152.645 12.7634 152.322 11.5966 152.322 10.0826C152.322 8.55574 152.632 7.37872 153.254 6.55659C153.876 5.73447 154.772 5.32341 155.942 5.32341C156.809 5.32341 157.541 5.56851 158.143 6.05872C158.724 6.53361 159.108 7.22809 159.287 8.13958C159.297 8.18809 159.338 8.22127 159.387 8.22127H160.592C160.656 8.22127 160.705 8.1651 160.695 8.10127C160.556 7.25872 160.277 6.54638 159.858 5.9617C159.417 5.34894 158.864 4.88681 158.199 4.57787C157.534 4.26893 156.784 4.11319 155.944 4.11319C154.902 4.11319 154.004 4.34298 153.246 4.80511C152.489 5.26724 151.905 5.93617 151.501 6.81702C151.096 7.69531 150.894 8.78553 150.894 10.0826C150.894 11.3234 151.096 12.3855 151.501 13.2715C151.905 14.1574 152.486 14.8391 153.246 15.314C154.004 15.7889 154.913 16.0264 155.967 16.0264C157.196 16.0264 158.24 15.7098 159.1 15.074C159.934 14.4587 160.492 13.4757 160.776 12.1277C160.789 12.0638 160.741 12.0051 160.677 12.0051H159.474C159.428 12.0051 159.387 12.0383 159.376 12.0843C159.164 12.9855 158.772 13.6621 158.196 14.1166Z" fill="white"/><path d="M172.005 4.35319H170.774C170.733 4.35319 170.695 4.37872 170.679 4.41702L167.475 12.4417L167.006 13.7515C166.973 13.8408 166.848 13.8408 166.814 13.7515L166.346 12.4417L163.054 4.41702C163.039 4.37872 163.001 4.35319 162.96 4.35319H161.642C161.57 4.35319 161.519 4.42724 161.547 4.49362L166.154 15.4494C166.164 15.4749 166.164 15.503 166.154 15.5285L165.716 16.5702C165.427 17.2468 165.174 17.7881 164.959 18.1915C164.741 18.5949 164.531 18.8911 164.329 19.0774C164.127 19.2638 163.902 19.3864 163.656 19.4451C163.618 19.4528 163.579 19.463 163.541 19.4681C163.392 19.4962 163.239 19.5038 163.088 19.5038H162.348C162.292 19.5038 162.246 19.5498 162.246 19.606V20.64C162.246 20.6962 162.292 20.7421 162.348 20.7421H163.134C163.136 20.7421 163.136 20.7421 163.139 20.7421C163.615 20.7421 164.025 20.6962 164.365 20.6017C164.705 20.5072 165.005 20.3336 165.263 20.0834C165.524 19.8306 165.775 19.4808 166.021 19.034C166.267 18.5872 166.533 18.0179 166.822 17.326L172.097 4.49106C172.128 4.42468 172.079 4.35319 172.005 4.35319Z" fill="white"/><path d="M0.00255812 0.104682V4.07489C0.00255812 4.13106 0.0486299 4.17702 0.104939 4.17702H10.1843C10.2407 4.17702 10.2867 4.13106 10.2867 4.07489V0.104682C10.2867 0.0485116 10.2407 0.00255568 10.1843 0.00255568H0.102379C0.0460699 0.00255568 0.00255812 0.0485116 0.00255812 0.104682Z" fill="white"/><path d="M0.104939 5.6451C0.0486299 5.6451 0 5.69107 0 5.74724V9.99574C0 10.0519 0.0460699 10.0953 0.102379 10.0953C3.3197 10.0953 5.8178 12.6306 5.8178 15.8017C5.8178 15.8579 5.86387 15.9013 5.91762 15.9013H10.1818C10.2381 15.9013 10.2867 15.8553 10.2842 15.7966C10.2304 10.2255 5.69494 5.70127 0.104939 5.6451Z" fill="white"/>
</svg>
