<svg preserveAspectRatio="none" width="100%" height="100%" overflow="visible" style="display: block;" viewBox="0 0 131.154 20.6138" fill="none" xmlns="http://www.w3.org/2000/svg">
<g id="Group">
<path id="Vector" d="M30.494 16.9964C29.2577 16.9964 28.2103 16.7274 27.3519 16.1894C26.4934 15.64 25.8524 14.8845 25.4288 13.923C25.0053 12.9615 24.7935 11.8512 24.7935 10.592C24.7935 9.32146 25.0167 8.21111 25.4632 7.26103C25.921 6.29954 26.5792 5.55549 27.4377 5.02898C28.2962 4.49101 29.3264 4.22199 30.5283 4.22199C32.0164 4.22199 33.1953 4.61117 34.0653 5.38951C34.9352 6.16791 35.4561 7.22098 35.6278 8.54882L33.3613 8.87501C33.2583 7.99362 32.955 7.30114 32.4513 6.79746C31.9477 6.29383 31.2838 6.04199 30.4596 6.04199C29.3951 6.04199 28.5652 6.45405 27.97 7.27821C27.3748 8.09095 27.0772 9.18983 27.0772 10.5748C27.0772 11.9484 27.3748 13.053 27.97 13.8887C28.5766 14.7242 29.4237 15.142 30.5111 15.142C31.2895 15.142 31.9305 14.9017 32.4342 14.4209C32.9493 13.9287 33.2869 13.2476 33.4472 12.3777L35.6449 12.8241C35.3702 14.1062 34.7979 15.1249 33.9279 15.8803C33.0695 16.6244 31.9248 16.9964 30.494 16.9964Z" fill="var(--fill-0, #17191B)"/>
<path id="Vector_2" d="M39.7667 4.25662V16.7048H37.7063V4.25662H39.7667Z" fill="var(--fill-0, #17191B)"/>
<path id="Vector_3" d="M49.881 12.9277H43.8544C43.8658 13.6488 44.0776 14.2269 44.4896 14.6619C44.9132 15.0854 45.4626 15.2972 46.1379 15.2972C46.6302 15.2972 47.0537 15.177 47.4086 14.9366C47.7634 14.6962 48.038 14.3413 48.2327 13.872L49.8123 14.5932C49.4918 15.3372 49.0054 15.9095 48.3529 16.3102C47.7119 16.7108 46.9507 16.9111 46.0693 16.9111C44.7529 16.9111 43.7227 16.5277 42.9787 15.7607C42.2347 14.9823 41.8626 13.8949 41.8626 12.4984C41.8626 11.0791 42.2232 9.96303 42.9443 9.15029C43.6769 8.32613 44.6842 7.91407 45.9663 7.91407C47.2139 7.91407 48.1755 8.2689 48.8508 8.97861C49.5376 9.67685 49.881 10.6784 49.881 11.9834V12.9277ZM47.855 11.4339C47.855 10.7357 47.689 10.2034 47.357 9.83711C47.0251 9.47082 46.55 9.28767 45.9319 9.28767C45.2795 9.28767 44.7758 9.48799 44.421 9.88863C44.0661 10.2892 43.8772 10.8501 43.8544 11.5712H47.855V11.4339Z" fill="var(--fill-0, #17191B)"/>
<path id="Vector_4" d="M54.1209 16.9111C53.2394 16.9111 52.5297 16.6822 51.9918 16.2243C51.4652 15.755 51.2019 15.1369 51.2019 14.37C51.2019 13.9579 51.2878 13.5859 51.4595 13.2539C51.6426 12.922 51.9059 12.6472 52.2493 12.4298C52.5584 12.2466 52.9304 12.0978 53.3652 11.9834C53.8004 11.8574 54.3615 11.7487 55.0479 11.6571L56.8681 11.4339V11.2107C56.8681 10.5697 56.7364 10.1061 56.4735 9.81994C56.2212 9.52234 55.8207 9.37354 55.2713 9.37354C54.7679 9.37354 54.3668 9.50517 54.0692 9.76842C53.7833 10.0203 53.6228 10.3923 53.5887 10.8845H51.4767C51.5454 9.96874 51.9174 9.24762 52.5927 8.72106C53.2681 8.18309 54.1609 7.91407 55.2713 7.91407C56.5417 7.91407 57.4692 8.20026 58.0527 8.77258C58.6479 9.33343 58.9455 10.2378 58.9455 11.4854V14.0437C58.9455 15.2113 59.0313 16.0984 59.2031 16.7051H57.1428C57.0628 16.2358 57.0169 15.7436 57.0057 15.2285C56.7993 15.755 56.4388 16.1671 55.9236 16.4647C55.4201 16.7623 54.8191 16.9111 54.1209 16.9111ZM54.7908 15.4517C55.4313 15.4517 55.9465 15.2456 56.3359 14.8335C56.7252 14.4215 56.9199 13.872 56.9199 13.1852V12.6358L54.9796 12.9277C54.4073 13.0192 53.9892 13.1738 53.7263 13.3913C53.4628 13.6088 53.3311 13.9006 53.3311 14.2669C53.3311 14.6332 53.4569 14.9251 53.7087 15.1426C53.9721 15.3486 54.3327 15.4517 54.7908 15.4517Z" fill="var(--fill-0, #17191B)"/>
<path id="Vector_5" d="M61.481 8.11951H63.4384V9.78501C64.0224 8.52586 64.9722 7.89631 66.2885 7.89631C67.2272 7.89631 67.937 8.19391 68.4176 8.78917C68.8986 9.37295 69.1386 10.2372 69.1386 11.3818V16.7044H67.0613V11.5878C67.0613 10.2372 66.529 9.56181 65.4645 9.56181C64.8576 9.56181 64.3829 9.79071 64.0394 10.2486C63.7072 10.7064 63.5413 11.3418 63.5413 12.1544V16.7044H61.481V8.11951Z" fill="var(--fill-0, #17191B)"/>
<path id="Vector_6" d="M80.0188 16.9964C78.622 16.9964 77.4834 16.6873 76.6018 16.0692C75.7319 15.4511 75.1655 14.6212 74.902 13.5796L76.7905 12.7554C77.0199 13.4995 77.4034 14.1004 77.941 14.5583C78.4791 15.0047 79.1948 15.2279 80.0876 15.2279C80.774 15.2279 81.3463 15.0848 81.8044 14.7986C82.2737 14.501 82.5084 14.0546 82.5084 13.4594C82.5084 12.8985 82.3425 12.4864 82.0103 12.2232C81.6897 11.9484 81.1692 11.7367 80.4481 11.5879L78.7484 11.2273C76.6193 10.7923 75.5548 9.62477 75.5548 7.72466C75.5548 7.02642 75.7319 6.41399 76.0871 5.88743C76.4529 5.36093 76.974 4.95458 77.6492 4.66839C78.3244 4.37079 79.1143 4.22199 80.0188 4.22199C81.2204 4.22199 82.2337 4.47383 83.0577 4.97746C83.8935 5.46967 84.4428 6.20797 84.7063 7.19239L82.9377 8.11954C82.7431 7.40983 82.3884 6.86615 81.8732 6.48839C81.3692 6.09922 80.7169 5.90461 79.9159 5.90461C79.2519 5.90461 78.7137 6.05341 78.3015 6.35106C77.9009 6.63719 77.7009 7.03783 77.7009 7.55293C77.7009 8.04514 77.8439 8.43431 78.1303 8.7205C78.4279 8.99522 78.9143 9.20695 79.5895 9.35581L81.358 9.73351C82.4455 9.96247 83.2754 10.3516 83.8476 10.9011C84.4199 11.4391 84.7063 12.2232 84.7063 13.2534C84.7063 13.9631 84.5287 14.6041 84.174 15.1764C83.8188 15.7373 83.2865 16.1837 82.5772 16.5156C81.8785 16.8362 81.0263 16.9964 80.0188 16.9964Z" fill="var(--fill-0, #17191B)"/>
<path id="Vector_7" d="M88.605 8.11951V9.64767C88.8567 9.05242 89.189 8.61173 89.6007 8.32554C90.0247 8.03941 90.5394 7.89631 91.1463 7.89631C92.3597 7.89631 93.1725 8.4801 93.5842 9.64767C94.1565 8.4801 95.0498 7.89631 96.2631 7.89631C97.0871 7.89631 97.7282 8.17674 98.1858 8.73765C98.6551 9.2985 98.8898 10.0826 98.8898 11.0899V16.7044H96.8295V11.4162C96.8295 10.1799 96.3602 9.56181 95.4215 9.56181C94.8951 9.56181 94.4887 9.74495 94.2023 10.1112C93.9277 10.4775 93.7906 11.004 93.7906 11.6909V16.7044H91.7298V11.3646C91.7298 10.7694 91.6098 10.323 91.3693 10.0254C91.1405 9.71631 90.797 9.56181 90.3394 9.56181C89.8242 9.56181 89.4237 9.75637 89.1373 10.1456C88.8514 10.5233 88.7079 11.0556 88.7079 11.7424V16.7044H86.6477V8.11951H88.605Z" fill="var(--fill-0, #17191B)"/>
<path id="Vector_8" d="M103.583 16.9111C102.702 16.9111 101.992 16.6822 101.454 16.2243C100.928 15.755 100.664 15.1369 100.664 14.37C100.664 13.9579 100.75 13.5859 100.922 13.2539C101.105 12.922 101.368 12.6472 101.712 12.4298C102.021 12.2466 102.393 12.0978 102.828 11.9834C103.263 11.8574 103.824 11.7487 104.511 11.6571L106.331 11.4339V11.2107C106.331 10.5697 106.199 10.1061 105.936 9.81994C105.684 9.52234 105.284 9.37354 104.734 9.37354C104.23 9.37354 103.83 9.50517 103.532 9.76842C103.246 10.0203 103.086 10.3923 103.051 10.8845H100.94C101.008 9.96874 101.38 9.24762 102.055 8.72106C102.731 8.18309 103.624 7.91407 104.734 7.91407C106.005 7.91407 106.932 8.20026 107.516 8.77258C108.111 9.33343 108.408 10.2378 108.408 11.4854V14.0437C108.408 15.2113 108.494 16.0984 108.666 16.7051H106.605C106.525 16.2358 106.479 15.7436 106.468 15.2285C106.262 15.755 105.902 16.1671 105.387 16.4647C104.883 16.7623 104.282 16.9111 103.583 16.9111ZM104.253 15.4517C104.894 15.4517 105.409 15.2456 105.798 14.8335C106.188 14.4215 106.382 13.872 106.382 13.1852V12.6358L104.442 12.9277C103.87 13.0192 103.452 13.1738 103.189 13.3913C102.925 13.6088 102.793 13.9006 102.793 14.2669C102.793 14.6332 102.92 14.9251 103.172 15.1426C103.435 15.3486 103.795 15.4517 104.253 15.4517Z" fill="var(--fill-0, #17191B)"/>
<path id="Vector_9" d="M112.869 10.1976C113.097 9.48799 113.441 8.93279 113.899 8.53221C114.357 8.1201 114.924 7.91407 115.599 7.91407C115.702 7.91407 115.782 7.91978 115.839 7.93125V9.90581H115.564C114.798 9.90581 114.202 10.1061 113.778 10.5067C113.47 10.8158 113.264 11.1821 113.16 11.6056C113.057 12.0291 113.006 12.5328 113.006 13.1166V16.7051H110.945V8.1201H112.869V10.1976Z" fill="var(--fill-0, #17191B)"/>
<path id="Vector_10" d="M116.938 8.11927H118.483V5.95585L120.544 5.13169V8.11927H122.638V9.61308H120.544V13.7167C120.544 14.186 120.646 14.5294 120.852 14.7469C121.058 14.9644 121.373 15.0731 121.797 15.0731C122.083 15.0731 122.363 15.0388 122.638 14.9701V16.7042C122.134 16.8073 121.665 16.8588 121.23 16.8588C120.246 16.8588 119.542 16.6184 119.118 16.1377C118.694 15.6569 118.483 14.9586 118.483 14.0429V9.61308H116.938V8.11927Z" fill="var(--fill-0, #17191B)"/>
<path id="Vector_11" d="M127.582 16.9111C126.586 16.9111 125.745 16.6994 125.058 16.2758C124.371 15.8408 123.891 15.2228 123.616 14.4215L125.144 13.7347C125.35 14.2841 125.665 14.7019 126.088 14.9881C126.512 15.2628 127.027 15.4002 127.634 15.4002C128.149 15.4002 128.538 15.3086 128.801 15.1254C129.076 14.9423 129.213 14.6847 129.213 14.3528C129.213 14.0094 129.111 13.7576 128.904 13.5973C128.709 13.4256 128.378 13.3111 127.908 13.2539L126.603 13.0822C125.733 12.9678 125.081 12.6931 124.646 12.2581C124.211 11.8117 123.994 11.2336 123.994 10.5239C123.994 9.72266 124.303 9.08735 124.921 8.61802C125.539 8.14874 126.392 7.91407 127.479 7.91407C128.407 7.91407 129.196 8.10869 129.849 8.49786C130.501 8.88703 130.936 9.4193 131.154 10.0947L129.729 10.8673C129.511 10.4094 129.208 10.0546 128.818 9.80277C128.429 9.53951 127.965 9.40783 127.428 9.40783C126.936 9.40783 126.557 9.4937 126.295 9.66538C126.031 9.83711 125.899 10.089 125.899 10.4209C125.899 10.7185 126.002 10.9532 126.209 11.1248C126.426 11.2965 126.758 11.4053 127.204 11.4511L128.647 11.6571C129.505 11.7602 130.129 12.0291 130.518 12.4641C130.919 12.8876 131.119 13.4657 131.119 14.1983C131.119 15.0453 130.804 15.7092 130.175 16.19C129.557 16.6708 128.692 16.9111 127.582 16.9111Z" fill="var(--fill-0, #17191B)"/>
<path id="Vector_12" d="M14.8396 17.9752C10.6124 20.4947 5.14253 19.1161 2.62298 14.8916C0.103418 10.6672 1.48722 5.19986 5.71692 2.67768C7.51846 1.60461 9.5446 1.23906 11.4714 1.50013L11.1372 4.24685C12.1477 4.38263 13.085 4.76642 13.884 5.33821L16.2494 1.88919C14.4114 0.591542 12.1398 -0.121258 9.71692 0.017142C4.03288 0.343489 -0.30911 5.21293 0.0172572 10.8969C0.343625 16.5809 5.21303 20.9229 10.897 20.5966C13.4688 20.4503 15.7638 19.3694 17.4766 17.7062L16.4923 16.7036C16.0041 17.1814 15.4531 17.6096 14.8396 17.9752Z" fill="var(--fill-0, #17191B)"/>
<path id="Vector_13" d="M4.17224 10.6879C4.36545 14.0769 7.27143 16.6669 10.6604 16.4711C12.1904 16.3824 13.5559 15.7427 14.5768 14.7557L16.4932 16.7061C17.5324 15.6957 18.2896 14.4633 18.7308 13.1317L15.3288 12.0273C14.9397 13.1918 14.1486 14.2283 13.0103 14.9072C10.4907 16.411 7.22961 15.586 5.72572 13.0691C4.22446 10.5495 5.04951 7.28843 7.56908 5.78715C8.6526 5.13963 9.87452 4.92555 11.0338 5.09003L11.1356 4.24934C10.7518 4.19712 10.3576 4.17883 9.95543 4.20235C6.56908 4.39296 3.97903 7.29888 4.17224 10.6879Z" fill="var(--fill-0, #17191B)"/>
</g>
</svg>
