<svg preserveAspectRatio="none" width="100%" height="100%" overflow="visible" style="display: block;" viewBox="0 0 104 24" fill="none" xmlns="http://www.w3.org/2000/svg">
<g id="Frame" clip-path="url(#clip0_0_62)">
<path id="Vector" d="M6.30088 0.441714H22.9381L22.2918 7.81176H10.2161L9.99752 10.3087H22.0732L21.5245 16.5953H9.44884L8.88156 23.1098H0.000320385L1.60452 4.76144C1.81377 2.37606 3.9155 0.441714 6.30088 0.441714Z" fill="var(--fill-0, #17191B)"/>
<path id="Vector_2" d="M24.7611 12.9359L25.8538 0.441714H34.7862L33.712 12.722C33.5121 14.9911 34.2514 16.4465 36.7345 16.4465C39.2175 16.4465 40.2918 14.9911 40.487 12.722L41.561 0.441714H50.4142L49.3262 12.8568C48.6566 20.5198 44.4206 23.8677 36.0835 23.8677C27.7463 23.8677 24.0961 20.5198 24.7611 12.9359Z" fill="var(--fill-0, #17191B)"/>
<path id="Vector_3" d="M69.2592 7.81176L67.92 23.1144H59.0668L60.406 7.81176H52.4732L53.1196 0.441714H77.8428L77.1964 7.81176H69.2592Z" fill="var(--fill-0, #17191B)"/>
<path id="Vector_4" d="M102.303 8.39117C104.371 6.41109 104.579 3.27055 102.765 1.37652C100.952 -0.517499 97.8059 -0.447751 95.7375 1.53231C93.6691 3.51237 93.4619 6.65293 95.2751 8.54697C97.0883 10.441 100.235 10.3712 102.303 8.39117Z" fill="var(--fill-0, #17191B)"/>
<path id="Vector_5" d="M93.2441 10.1878L89.9241 0.441714H79.8153L84.3677 13.7961L79.6713 23.1098H89.7289L92.6305 17.4137C93.8069 15.1027 94.0301 12.4895 93.2441 10.1832V10.1878Z" fill="var(--fill-0, #17191B)"/>
</g>
<defs>
<clipPath id="clip0_0_62">
<rect width="104" height="24" fill="white"/>
</clipPath>
</defs>
</svg>
