<svg preserveAspectRatio="none" width="100%" height="100%" overflow="visible" style="display: block;" viewBox="0 0 134.097 22.0734" fill="none" xmlns="http://www.w3.org/2000/svg">
<g id="Group">
<path id="Vector" d="M2.69133 8.616L2.81133 9.986C3.74867 9.02467 5.16667 8.25533 7.11333 8.25533V11.3553C4.638 11.3553 3.34067 12.726 2.908 13.9273V21.7133H0V8.616H2.69133ZM20.8113 15.176V16.1373H11.0793C11.4393 18.1073 12.9773 19.2127 14.684 19.2127C16.294 19.2127 17.3033 18.8047 18.096 17.8427L20.3547 19.5733C19.4653 20.8707 16.9907 22.072 14.6833 22.072C10.31 22.072 8.17067 18.4193 8.17067 15.1987C8.17067 11.9787 10.6693 8.25467 14.6833 8.27867C18.792 8.302 20.8107 12.316 20.8107 15.1753H20.8113V15.176ZM11.1273 13.6133H17.856C17.568 12.22 16.1493 11.0427 14.636 11.0427C13.853 11.0389 13.0894 11.2867 12.4578 11.7495C11.8262 12.2122 11.3598 12.8656 11.1273 13.6133ZM20.9793 8.616H23.9107L27.684 15.9453L29.1493 13.0613L27.0827 8.616H29.918L33.5227 15.9453L37.0313 8.616H40.0353L33.5467 22.0727L30.5187 16.2333L27.7313 22.0733L20.978 8.616H20.9793ZM51.4267 21.7127L51.2827 20.0787C50.3933 21.28 48.808 22.0493 47.198 22.0493C43.4007 22.0493 40.3973 19.1413 40.3973 15.152C40.3973 11.1633 43.4013 8.25533 47.1973 8.25533C48.8553 8.25533 50.3933 9.07267 51.2827 10.25L51.4027 8.616H54.118V21.7127H51.4267ZM47.2933 10.8747C44.9627 10.8747 43.2087 12.8213 43.2087 15.152C43.2087 17.4833 44.9627 19.3813 47.294 19.3813C49.6247 19.3813 51.3313 17.4833 51.3313 15.152C51.3313 12.8213 49.504 10.8747 47.2933 10.8747ZM59.982 8.616L60.102 9.986C61.0387 9.02467 62.4567 8.25533 64.4033 8.25533V11.3553C61.9287 11.3553 60.6307 12.726 60.198 13.9273V21.7133H57.29V8.616H59.982ZM76.5627 21.712L76.4187 20.0787C75.5293 21.2793 73.944 22.0487 72.3333 22.0487C68.5373 22.0487 65.5333 19.1413 65.5333 15.152C65.5333 11.1633 68.5373 8.25533 72.3333 8.25533C73.9913 8.25533 75.5293 9.07267 76.4187 10.25V3.68867H79.254V21.7113H76.5627V21.712ZM72.43 10.8747C70.0987 10.8747 68.3447 12.8213 68.3447 15.152C68.3447 17.4833 70.0987 19.3813 72.43 19.3813C74.7607 19.3813 76.4673 17.4833 76.4673 15.152C76.4673 12.8213 74.6407 10.8747 72.43 10.8747ZM84.638 11.956C84.638 12.58 85.1907 13.0607 86.2953 13.422C88.9873 14.2867 91.558 15.6807 91.558 18.084C91.558 20.3187 89.78 22.0727 86.9927 22.0727C84.854 22.0727 82.6193 20.7753 81.3213 18.7567L83.4593 17.1467C84.108 18.0113 85.502 19.2613 86.992 19.2613C87.9287 19.2613 88.722 18.8047 88.722 18.18C88.722 17.1707 87.4487 16.6667 85.8627 16.1133C82.4987 14.936 81.7773 13.302 81.754 11.932C81.706 9.76867 83.748 8.25533 86.4393 8.25533C87.8813 8.25533 89.732 8.64 91.462 10.7307L89.2513 12.3887C88.266 11.3553 87.184 10.9947 86.4393 10.9947C85.5987 10.9947 84.638 11.2827 84.638 11.956ZM93.8893 20.102C94.418 20.102 94.8267 20.5113 94.8267 21.0393C94.8267 21.568 94.4173 21.9527 93.8893 21.9527C93.3607 21.9527 92.976 21.5687 92.976 21.0393C92.976 20.5107 93.36 20.102 93.8893 20.102ZM103.838 8.27933C105.785 8.27933 107.779 9.33667 108.764 11.1147V3.68867H110.061V21.7113H108.884L108.788 19.2127C107.803 20.9907 105.784 22.048 103.838 22.048C100.041 22.048 97.2773 19.2127 97.2773 15.1747C97.2773 11.138 100.041 8.27933 103.838 8.27933ZM103.67 9.57667C100.594 9.57667 98.5273 12.148 98.5273 15.2C98.5273 18.2513 100.594 20.7507 103.67 20.7507C106.745 20.7507 108.813 18.2753 108.813 15.2C108.813 12.124 106.578 9.57667 103.67 9.57667ZM114.219 15.2C114.219 18.3 116.069 20.7507 119.169 20.7507C120.875 20.7507 122.773 19.9573 123.471 18.732L124.455 19.5253C123.518 21.0393 121.283 22.0487 119.169 22.0487C115.373 22.0487 112.945 18.9733 112.945 15.176C112.945 11.3787 115.349 8.27933 119.145 8.27933C122.941 8.27933 124.864 11.4273 124.888 15.1993L114.219 15.2ZM114.315 13.902H123.519C123.159 11.4513 121.765 9.57667 119.146 9.57667C116.527 9.57667 114.748 11.4273 114.316 13.9027L114.315 13.902ZM126.019 4.16733L126.071 0L123.353 0.11L123.302 4.278L126.019 4.16733ZM133.447 4.82267L131.916 2.79333L128.295 5.556L129.827 7.58467L133.447 4.82267ZM133.313 13.9113L134.097 11.2913L130.066 10.314L129.283 12.934L133.313 13.9113H133.313Z" fill="var(--fill-0, #17191B)"/>
</g>
</svg>
