<svg preserveAspectRatio="none" width="100%" height="100%" overflow="visible" style="display: block;" viewBox="0 0 157.109 24" fill="none" xmlns="http://www.w3.org/2000/svg">
<g id="WORDMARK" clip-path="url(#clip0_0_13)">
<g id="Vector">
<path d="M12.5446 18.0552C12.5446 18.1618 12.4026 18.196 12.3539 18.1013C12.0251 17.4475 11.2398 16.0993 9.74425 14.6024C8.24869 13.1056 6.90045 12.3203 6.24541 11.9914C6.1507 11.9441 6.1849 11.8007 6.29144 11.8007L12.4223 11.8231C12.4776 11.8231 12.5223 11.8678 12.5223 11.923L12.5446 18.0539L12.5446 18.0552Z" fill="var(--fill-0, #17191B)"/>
<path d="M12.4131 17.9264C12.0448 17.22 11.2582 15.931 9.83762 14.5104C8.41572 13.0885 7.12667 12.3019 6.42032 11.9349L12.392 11.956L12.4131 17.9277L12.4131 17.9264Z" fill="var(--fill-0, #17191B)"/>
<path d="M9.48644 24.0007C9.37595 24.0007 9.26415 24.0007 9.15234 23.9954C5.32992 23.881 2.95043 21.8921 1.7482 20.5044C1.65218 20.3939 1.78371 20.2322 1.9113 20.3032C4.39207 21.6804 6.2454 22.2552 8.10795 22.2552C8.65382 22.2552 9.20496 22.2078 9.7916 22.1092C11.6528 21.7987 13.397 20.8149 14.5756 19.4101C15.8554 17.8829 16.3934 15.9638 16.0908 14.0066C15.4516 9.87109 10.8242 5.42913 9.42199 4.16639L9.37595 4.12562C9.31939 4.07563 9.24705 4.04801 9.17207 4.04801C9.0971 4.04801 9.0287 4.07432 8.97345 4.12167C7.08065 5.7777 1.09841 11.414 3.54892 14.4183C4.03823 15.0194 4.65645 15.3246 5.39042 15.3246L5.42857 15.3246C6.5874 15.3061 7.94879 14.509 9.26678 13.0779L9.28256 13.1595C9.27598 13.1595 9.35491 13.1766 9.58509 13.3568L9.59036 13.3621L11.0978 14.9352L11.1662 15.0062C10.9794 15.2062 10.7702 15.4285 10.5374 15.6744C8.52755 17.7856 6.57556 18.2289 5.29177 18.2289C4.39338 18.2289 3.51472 18.0132 2.75182 17.6041C0.632776 16.4637 -0.412932 14.0434 0.151356 11.5824C1.29703 6.5827 7.76464 1.10819 9.0892 0.0295955C9.13787 -0.00986521 9.20496 -0.00986521 9.25362 0.0295955C10.1336 0.735942 12.3552 2.67872 14.4348 5.1095C17.2286 8.37422 18.7794 11.3693 18.9202 13.7724C19.0912 16.6899 18.1652 19.3469 16.3131 21.2542C14.5927 23.0247 12.1685 24.0007 9.48776 24.0007L9.48644 24.0007Z" fill="var(--fill-0, #17191B)"/>
</g>
<path id="Vector_2" d="M45.607 4.51335L40.4442 21.05C40.439 21.0671 40.4232 21.079 40.4061 21.079H38.045C38.0279 21.079 38.0134 21.0684 38.0069 21.054L33.8516 10.4574C33.8385 10.4233 33.7898 10.4233 33.7767 10.4574L29.7293 21.054C29.7227 21.0697 29.7083 21.0803 29.6912 21.0803H27.3301C27.313 21.0803 27.2972 21.0684 27.292 21.0526L22.0108 4.51598C22.0029 4.48968 22.0213 4.46337 22.049 4.46337H24.8612C24.8783 4.46337 24.8941 4.47521 24.8993 4.49231L28.6126 16.6186C28.6244 16.6554 28.6744 16.6567 28.6889 16.6212L33.2874 4.73302C33.2939 4.71723 33.3084 4.70671 33.3255 4.70671H34.2818C34.2989 4.70671 34.3133 4.71723 34.3186 4.7317L39.0486 16.6291C39.0631 16.6646 39.1144 16.662 39.1249 16.6252L42.7553 4.49099C42.7606 4.47389 42.7763 4.46205 42.7934 4.46205H45.5675C45.5952 4.46205 45.6136 4.48836 45.6057 4.51467L45.607 4.51335Z" fill="var(--fill-0, #17191B)"/>
<path id="Vector_3" d="M58.2544 8.29237V21.0316C58.2544 21.054 58.236 21.0724 58.2136 21.0724H56.163C56.1433 21.0724 56.1262 21.0579 56.1235 21.0382L55.8854 19.5886C55.8802 19.5571 55.842 19.5439 55.8184 19.5676C54.6609 20.7093 53.0627 21.3907 51.2238 21.3907C47.4053 21.3907 44.5497 18.5048 44.5497 14.6613C44.5497 10.8179 47.4053 7.94643 51.2238 7.94643C53.0851 7.94643 54.699 8.63831 55.8591 9.80108C55.8815 9.82344 55.921 9.81292 55.9262 9.78004L56.2143 8.28448C56.2182 8.26606 56.234 8.25159 56.2538 8.25159H58.2136C58.236 8.25159 58.2544 8.27001 58.2544 8.29237ZM55.5461 15.4597C56.0407 12.5712 53.4823 10.0023 50.599 10.5298C48.6168 10.8928 47.2317 12.5462 47.2317 14.6613C47.2317 17.0605 49.014 18.8678 51.4303 18.8678C53.5717 18.8678 55.2028 17.4617 55.5461 15.4597Z" fill="var(--fill-0, #17191B)"/>
<path id="Vector_4" d="M68.1461 18.7266V21.0403C68.1461 21.0627 68.1277 21.0811 68.1053 21.0811H66.1862C63.3779 21.0811 61.6456 19.3474 61.6456 16.5168V10.5595C61.6456 10.5372 61.6272 10.5188 61.6048 10.5188H59.3924C59.37 10.5188 59.3516 10.5003 59.3516 10.478V10.0242C59.3516 10.0137 59.3555 10.0045 59.3621 9.99656L63.7975 5.28101C63.8054 5.27312 63.8159 5.26786 63.8264 5.26786H64.2171C64.2395 5.26786 64.2579 5.28627 64.2579 5.30863V8.22083C64.2579 8.24319 64.2763 8.26161 64.2987 8.26161H68.033C68.0553 8.26161 68.0737 8.28002 68.0737 8.30238V10.4793C68.0737 10.5017 68.0553 10.5201 68.033 10.5201H64.3197C64.2973 10.5201 64.2789 10.5385 64.2789 10.5609V16.3103C64.2789 17.8387 65.13 18.6898 66.6821 18.6898H68.104C68.1264 18.6898 68.1448 18.7082 68.1448 18.7305L68.1461 18.7266Z" fill="var(--fill-0, #17191B)"/>
<path id="Vector_5" d="M81.7926 14.6982C81.7926 14.9744 81.7702 15.2506 81.7426 15.5268C81.74 15.5479 81.7229 15.5637 81.7018 15.5637H71.3815C71.3566 15.5637 71.3368 15.5873 71.3408 15.611C71.6854 17.6603 73.1744 18.9178 75.2566 18.9178C76.7798 18.9178 78.0149 18.2181 78.6949 17.0605C78.7015 17.0487 78.7147 17.0408 78.7291 17.0408H81.4217C81.4506 17.0408 81.4703 17.0697 81.4598 17.096C80.4286 19.7689 78.1004 21.3894 75.2579 21.3894C71.5105 21.3894 68.6719 18.4969 68.6719 14.6679C68.6719 10.8389 71.5039 7.94643 75.2579 7.94643C79.0119 7.94643 81.7939 10.9678 81.7939 14.6982H81.7926ZM75.2566 10.3259C73.2914 10.3259 71.8564 11.5005 71.4105 13.3723C71.4039 13.3973 71.4236 13.4223 71.4499 13.4223H79.0974C79.1237 13.4223 79.1435 13.3973 79.1369 13.371C78.6502 11.4545 77.1915 10.3259 75.2566 10.3259Z" fill="var(--fill-0, #17191B)"/>
<path id="Vector_6" d="M90.6304 8.22828V10.6367C90.6304 10.6591 90.612 10.6775 90.5896 10.6775H89.2387C87.0592 10.6775 85.9714 11.9205 85.9714 14.2434V21.0399C85.9714 21.0622 85.953 21.0806 85.9306 21.0806H83.3762C83.3538 21.0806 83.3354 21.0622 83.3354 21.0399V8.29931C83.3354 8.27694 83.3538 8.25853 83.3762 8.25853H85.0875C85.1059 8.25853 85.1217 8.27168 85.1269 8.28878L85.5452 9.92903C85.5531 9.96192 85.5952 9.96981 85.6149 9.9435C86.5278 8.77152 87.7721 8.1875 89.49 8.1875H90.5896C90.612 8.1875 90.6304 8.20592 90.6304 8.22828Z" fill="var(--fill-0, #17191B)"/>
<path id="Vector_7" d="M106.798 12.7624C106.798 17.5818 103.254 21.078 98.3704 21.078H92.5525C92.5302 21.078 92.5118 21.0596 92.5118 21.0373V4.5006C92.5118 4.47824 92.5302 4.45982 92.5525 4.45982H98.3704C103.261 4.45982 106.798 7.94946 106.798 12.7624ZM104.011 12.7624C104.011 9.40951 101.652 7.00372 98.2928 7.00372H95.2793C95.2569 7.00372 95.2385 7.02214 95.2385 7.0445V18.4947C95.2385 18.517 95.2569 18.5355 95.2793 18.5355H98.2928C101.652 18.5355 104.011 16.1086 104.011 12.7624Z" fill="var(--fill-0, #17191B)"/>
<path id="Vector_8" d="M108.534 4.47545H111.177C111.199 4.47545 111.217 4.49386 111.217 4.51622V7.15351C111.217 7.17587 111.199 7.19429 111.177 7.19429H108.534C108.512 7.19429 108.493 7.17587 108.493 7.15351V4.51622C108.493 4.49386 108.512 4.47545 108.534 4.47545ZM108.579 8.25973H111.133C111.156 8.25973 111.174 8.27814 111.174 8.3005V21.0397C111.174 21.0621 111.156 21.0805 111.133 21.0805H108.579C108.556 21.0805 108.538 21.0621 108.538 21.0397V8.3005C108.538 8.27814 108.556 8.25973 108.579 8.25973Z" fill="var(--fill-0, #17191B)"/>
<path id="Vector_9" d="M120.451 8.22828V10.6367C120.451 10.6591 120.433 10.6775 120.41 10.6775H119.06C116.88 10.6775 115.792 11.9205 115.792 14.2434V21.0399C115.792 21.0622 115.774 21.0806 115.751 21.0806H113.197C113.175 21.0806 113.156 21.0622 113.156 21.0399V8.29931C113.156 8.27694 113.175 8.25853 113.197 8.25853H114.908C114.927 8.25853 114.943 8.27168 114.948 8.28878L115.366 9.92903C115.374 9.96192 115.416 9.96981 115.436 9.9435C116.349 8.77152 117.593 8.1875 119.311 8.1875H120.41C120.433 8.1875 120.451 8.20592 120.451 8.22828Z" fill="var(--fill-0, #17191B)"/>
<path id="Vector_10" d="M133.718 14.6982C133.718 14.9744 133.695 15.2506 133.668 15.5268C133.665 15.5479 133.648 15.5637 133.627 15.5637H123.307C123.282 15.5637 123.262 15.5873 123.266 15.611C123.611 17.6603 125.1 18.9178 127.182 18.9178C128.705 18.9178 129.94 18.2181 130.62 17.0605C130.627 17.0487 130.64 17.0408 130.654 17.0408H133.347C133.376 17.0408 133.396 17.0697 133.385 17.096C132.354 19.7689 130.026 21.3894 127.183 21.3894C123.436 21.3894 120.597 18.4969 120.597 14.6679C120.597 10.8389 123.429 7.94643 127.183 7.94643C130.937 7.94643 133.719 10.9678 133.719 14.6982H133.718ZM127.182 10.3259C125.217 10.3259 123.782 11.5005 123.336 13.3723C123.329 13.3973 123.349 13.4223 123.375 13.4223H131.023C131.049 13.4223 131.069 13.3973 131.062 13.371C130.575 11.4545 129.117 10.3259 127.182 10.3259Z" fill="var(--fill-0, #17191B)"/>
<path id="Vector_11" d="M141.608 21.3907C137.79 21.3907 134.89 18.4838 134.89 14.6547C134.89 10.8257 137.782 7.94643 141.615 7.94643C144.765 7.94643 147.23 9.86422 147.959 12.7777C147.966 12.8027 147.946 12.829 147.919 12.829H145.386C145.37 12.829 145.357 12.8198 145.351 12.8054C144.672 11.344 143.272 10.4627 141.61 10.4627C139.303 10.4627 137.574 12.2858 137.574 14.6613C137.574 17.0369 139.326 18.8744 141.61 18.8744C143.279 18.8744 144.632 17.9787 145.333 16.4331C145.34 16.4186 145.355 16.4094 145.369 16.4094H147.951C147.977 16.4094 147.997 16.4344 147.991 16.4594C147.268 19.4269 144.756 21.3894 141.608 21.3894V21.3907Z" fill="var(--fill-0, #17191B)"/>
<path id="Vector_12" d="M157.109 18.7266V21.0403C157.109 21.0627 157.09 21.0811 157.068 21.0811H155.149C152.341 21.0811 150.608 19.3474 150.608 16.5168V10.5595C150.608 10.5372 150.59 10.5188 150.567 10.5188H148.355C148.333 10.5188 148.314 10.5003 148.314 10.478V10.0242C148.314 10.0137 148.318 10.0045 148.325 9.99656L152.76 5.28101C152.768 5.27312 152.779 5.26786 152.789 5.26786H153.18C153.202 5.26786 153.22 5.28627 153.22 5.30863V8.22083C153.22 8.24319 153.239 8.26161 153.261 8.26161H156.996C157.018 8.26161 157.036 8.28002 157.036 8.30238V10.4793C157.036 10.5017 157.018 10.5201 156.996 10.5201H153.282C153.26 10.5201 153.242 10.5385 153.242 10.5609V16.3103C153.242 17.8387 154.093 18.6898 155.645 18.6898H157.067C157.089 18.6898 157.107 18.7082 157.107 18.7305L157.109 18.7266Z" fill="var(--fill-0, #17191B)"/>
</g>
<defs>
<clipPath id="clip0_0_13">
<rect width="157.109" height="24" fill="white"/>
</clipPath>
</defs>
</svg>
