<svg preserveAspectRatio="none" width="100%" height="100%" overflow="visible" style="display: block;" viewBox="0 0 108.19 32" fill="none" xmlns="http://www.w3.org/2000/svg">
<g id="Frame">
<path id="Vector" d="M15.6197 25.3731H1.00638V2.52818H4.62695V22.1427H15.6197V25.3731ZM23.19 24.4268L28.4746 8.69656H31.9641L24.1378 31.8996H20.6483L22.8654 25.3731H20.1576L14.4814 8.69656H18.1995L23.19 24.4268ZM43.8285 8.37046C45.9816 8.37046 47.7751 9.20856 49.2106 10.8832C50.646 12.5366 51.3637 14.5922 51.3637 17.0516C51.3637 19.5095 50.6475 21.5651 49.2106 23.22C47.7767 24.8733 45.9816 25.6992 43.8285 25.6992C42.2635 25.6992 40.8936 25.2421 39.7188 24.3278C38.5668 23.3937 37.7287 22.132 37.2075 20.5427V25.3731H33.782V1.2238H37.2075V13.527C37.7287 11.9392 38.5668 10.6882 39.7188 9.77389C40.8921 8.83827 42.2635 8.37046 43.8285 8.37046ZM42.6871 22.5343C44.1226 22.5343 45.3294 22.0116 46.3077 20.9678C47.3089 19.9011 47.8087 18.5967 47.8087 17.0516C47.8087 15.4851 47.3089 14.1792 46.3077 13.1354C45.3294 12.0687 44.1226 11.5354 42.6871 11.5354C41.0993 11.5354 39.7843 12.0581 38.7405 13.1019C37.718 14.1472 37.2075 15.4638 37.2075 17.0516C37.2075 18.6181 37.718 19.9225 38.7405 20.9678C39.7843 22.0116 41.0993 22.5343 42.6871 22.5343ZM62.3351 8.37046C65.011 8.37046 67.1854 9.32741 68.8601 11.2428C70.5348 13.1567 71.219 15.4745 70.9142 18.1929H57.1161C57.3553 19.543 57.9755 20.6417 58.9751 21.4889C59.9763 22.3164 61.1831 22.7293 62.5972 22.7293C63.6837 22.7293 64.6513 22.4687 65.5001 21.9461C66.3594 21.4134 67.0582 20.6577 67.5222 19.7594L70.393 21.0333C69.6676 22.4322 68.573 23.6057 67.2281 24.4268C65.8582 25.2756 64.2826 25.6992 62.4982 25.6992C59.9991 25.6992 57.8993 24.8733 56.2033 23.22C54.5073 21.5651 53.6586 19.5095 53.6586 17.0516C53.6586 14.5922 54.4845 12.5366 56.1378 10.8832C57.8125 9.20703 59.8788 8.37046 62.3351 8.37046ZM62.3351 11.3404C61.075 11.3404 59.9763 11.732 59.0407 12.5137C58.1264 13.2756 57.5184 14.2767 57.2136 15.5171H67.4567C67.1748 14.2767 66.5652 13.2771 65.6296 12.5152C64.7169 11.732 63.6182 11.3404 62.3351 11.3404ZM77.5641 8.69656V13.1019C78.1081 11.1225 78.9569 9.78456 80.1089 9.08818C81.2822 8.3918 82.6094 8.21808 84.089 8.56551V11.8295C82.2833 11.3297 80.7397 11.4927 79.4567 12.3187C78.195 13.1247 77.5641 14.3316 77.5641 15.9423V25.3731H74.1386V8.69656H77.5641ZM90.4799 12.8962H97.6662V15.1164H90.4799V12.8962ZM99.9092 12.8962H107.096V15.1164H99.9092V12.8962Z" fill="var(--fill-0, #17191B)"/>
<path id="Vector_2" d="M95.6051 6.33704L99.1982 12.4902L97.2538 13.5995L93.6607 7.44637L95.6051 6.33704ZM100.321 14.4102L103.914 20.5633L101.97 21.6742L98.3769 15.521L100.321 14.4102Z" fill="var(--fill-0, #17191B)"/>
<path id="Vector_3" d="M103.914 7.44482L100.321 13.598L98.3784 12.4886L101.972 6.33548L103.914 7.44482ZM99.1982 15.5241L95.6051 21.6772L93.6607 20.5679L97.2538 14.4147L99.1982 15.5241Z" fill="var(--fill-0, #17191B)"/>
</g>
</svg>
