<svg preserveAspectRatio="none" width="100%" height="100%" overflow="visible" style="display: block;" viewBox="0 0 124.444 26.6667" fill="none" xmlns="http://www.w3.org/2000/svg">
<g id="Frame" clip-path="url(#clip0_0_6)">
<path id="Vector" d="M1.11146 11.9024L4.63924 8.68905L16.6648 21.3257C17.0059 21.7146 17.3848 21.8402 17.707 21.8524H10.767L1.11146 11.9024ZM23.6848 15.1157L20.157 18.329L7.78368 5.34016C7.44368 4.95238 7.06479 4.82572 6.74257 4.81461H13.6815L23.6848 15.1157Z" fill="var(--fill-0, #17191B)"/>
<path id="Vector_2" d="M13.6818 4.81438H6.74072C6.69039 4.81136 6.63993 4.81136 6.58961 4.81438C6.38294 4.82549 6.21183 4.88105 6.0985 4.92216C5.79961 5.03994 5.10405 5.41549 5.10405 6.39327V23.0444C2.49183 23.0444 0.369607 20.8888 0.369607 18.2299V6.39327C0.369607 3.71883 1.95627 1.37772 4.41183 0.424383C5.09252 0.159098 5.81474 0.0161603 6.54516 0.00216108C6.58961 -6.11401e-05 6.62627 -6.11401e-05 6.6685 -6.11401e-05C8.4085 -6.11401e-05 10.0974 0.743272 11.3141 2.12994L13.6818 4.81438Z" fill="var(--fill-0, #17191B)"/>
<path id="Vector_3" d="M10.7643 21.853H17.7032C17.7532 21.8563 17.8032 21.8563 17.8543 21.853C18.0609 21.8408 18.232 21.7863 18.3454 21.7441C18.6454 21.6274 19.3398 21.2508 19.3398 20.273V3.62298C21.9532 3.62298 24.0743 5.77743 24.0743 8.43632V20.273C24.0743 22.9485 22.4887 25.2885 20.032 26.243C19.3131 26.5232 18.5481 26.6668 17.7765 26.6663C16.895 26.664 16.0244 26.4727 15.2231 26.1053C14.4219 25.7378 13.7089 25.2028 13.132 24.5363L10.7643 21.853Z" fill="var(--fill-0, #17191B)"/>
<path id="Vector_4" d="M45.5979 5.9785C43.819 5.9785 42.1123 6.62739 40.8534 7.78183C39.5968 8.93739 38.889 10.5018 38.889 12.1352V20.6885H42.4901V11.8729C42.4901 11.4985 42.5712 11.1274 42.7268 10.7818C42.8823 10.4352 43.1123 10.1207 43.4001 9.85628C43.6945 9.58859 44.0368 9.37898 44.409 9.2385C45.175 8.94796 46.0208 8.94796 46.7868 9.2385C47.1646 9.38183 47.5079 9.59183 47.7957 9.85628C48.0846 10.1207 48.3134 10.4352 48.4701 10.7818C48.6257 11.1263 48.7068 11.4985 48.7068 11.8729V20.6885H52.3068V12.1341C52.3068 10.5018 51.6012 8.93628 50.3423 7.78183C49.0846 6.62739 47.3779 5.9785 45.5979 5.9785ZM70.8001 10.2763C70.3748 9.32715 69.7591 8.47549 68.9912 7.77405C68.1985 7.04956 67.274 6.48413 66.2679 6.1085C64.1328 5.37076 61.8119 5.37076 59.6768 6.1085C58.6703 6.48395 57.7453 7.0494 56.9523 7.77405C56.184 8.47538 55.5679 9.32705 55.1423 10.2763C54.3414 12.2269 54.3414 14.4145 55.1423 16.3652C55.561 17.3193 56.1745 18.1754 56.9434 18.8785C57.7293 19.6123 58.6536 20.1819 59.6623 20.5541C61.8122 21.2967 64.1491 21.2967 66.299 20.5541C67.308 20.1826 68.2325 19.6129 69.0179 18.8785C69.7868 18.1756 70.4 17.3195 70.8179 16.3652C71.2235 15.402 71.427 14.3658 71.4157 13.3207C71.4251 12.2742 71.2147 11.2372 70.8001 10.2763ZM67.4301 15.1852C67.1937 15.7517 66.8431 16.2635 66.4001 16.6885C65.9734 17.1163 65.4523 17.4552 64.8701 17.6841C63.6434 18.1231 62.3024 18.1231 61.0757 17.6841C60.5073 17.464 59.9906 17.1288 59.5579 16.6996C59.1176 16.2771 58.7715 15.7663 58.5423 15.2007C58.0846 13.9857 58.0846 12.6457 58.5423 11.4307C58.7715 10.8652 59.1176 10.3544 59.5579 9.93183C59.9906 9.50265 60.5073 9.1675 61.0757 8.94739C62.3034 8.50762 63.6457 8.50762 64.8734 8.94739C65.4523 9.17405 65.9734 9.50961 66.4034 9.93183C66.8512 10.3629 67.2001 10.8729 67.4279 11.4307C67.8877 12.6381 67.8877 13.9723 67.4279 15.1796L67.4301 15.1852ZM75.3279 7.51961C74.8031 7.99621 74.3809 8.57461 74.0868 9.21961C73.8002 9.8498 73.6517 10.534 73.6512 11.2263V20.6863H77.2534V11.1541C77.2534 10.8785 77.3112 10.6052 77.4257 10.3507C77.5412 10.0952 77.7101 9.86405 77.9223 9.66961C78.1345 9.47405 78.3868 9.31961 78.6645 9.21405C78.9447 9.10832 79.2418 9.05448 79.5412 9.05516H81.5612V5.98072H79.3768C78.6279 5.97869 77.885 6.11349 77.1846 6.3785C76.499 6.63731 75.8681 7.02461 75.3279 7.51961ZM103.583 7.33628C102.997 6.81018 102.31 6.40839 101.563 6.15516C100.767 5.89011 99.9325 5.75943 99.0934 5.7685C98.0717 5.74697 97.059 5.96382 96.1357 6.40183C95.5513 6.69235 95.0266 7.08997 94.589 7.57405C94.1532 7.08711 93.6282 6.68808 93.0423 6.3985C92.1126 5.96461 91.0959 5.74911 90.0701 5.7685C89.2347 5.76005 88.4037 5.89072 87.6112 6.15516C86.8682 6.4128 86.1823 6.81201 85.5912 7.33072C85.0159 7.82506 84.5558 8.43947 84.2434 9.13072C83.94 9.82874 83.7874 10.583 83.7957 11.3441V20.8996H87.3857V11.3441C87.379 10.9929 87.4445 10.6441 87.5768 10.3141C87.699 10.0174 87.8879 9.74739 88.1301 9.52072C88.369 9.29516 88.6579 9.12072 88.9757 9.00628C89.3349 8.88321 89.7126 8.82307 90.0923 8.8285C90.4657 8.82405 90.8357 8.88405 91.1834 9.00628C91.5012 9.12072 91.7879 9.29628 92.0257 9.52072C92.2701 9.74628 92.459 10.0174 92.5812 10.3141C92.7123 10.6441 92.7768 10.9929 92.7701 11.3441V20.8996H96.3723V11.3441C96.3667 10.991 96.4305 10.6403 96.5601 10.3118C96.6871 10.0116 96.8746 9.74074 97.1109 9.51612C97.3472 9.29151 97.6272 9.11796 97.9334 9.00628C98.2801 8.88405 98.649 8.82405 99.0212 8.8285C99.4009 8.82307 99.7787 8.88321 100.138 9.00628C100.457 9.12072 100.745 9.29516 100.983 9.52072C101.226 9.74739 101.415 10.0174 101.538 10.3141C101.67 10.6441 101.735 10.9929 101.728 11.3441V20.8996H105.329V11.3441C105.337 10.5862 105.19 9.83473 104.896 9.13627C104.594 8.44842 104.146 7.83427 103.583 7.33628ZM120.965 5.9785V7.1785C120.631 6.90919 120.272 6.6722 119.893 6.47072C118.67 5.83935 117.308 5.52531 115.931 5.55739C114.799 5.54401 113.674 5.73058 112.607 6.1085C111.605 6.47151 110.688 7.03524 109.911 7.76516C109.151 8.46445 108.548 9.31738 108.142 10.2674C107.747 11.2361 107.55 12.2745 107.565 13.3207C107.556 14.3712 107.752 15.4132 108.142 16.3885C108.527 17.3241 109.117 18.1774 109.875 18.8963C110.639 19.6328 111.551 20.2003 112.549 20.5618C113.625 20.9391 114.76 21.1245 115.9 21.1096C117.288 21.1212 118.656 20.7834 119.879 20.1274C120.277 19.9052 120.647 19.6452 120.981 19.3496V20.6885H124.445V5.9785H120.965ZM120.557 15.2107C120.326 15.7685 119.975 16.2774 119.525 16.7063C119.079 17.1386 118.55 17.4748 117.969 17.6941C117.342 17.9194 116.679 18.0286 116.012 18.0163C115.362 18.0249 114.716 17.9119 114.108 17.6829C113.532 17.4598 113.007 17.1214 112.567 16.6885C112.121 16.2656 111.768 15.7544 111.53 15.1874C111.291 14.5945 111.173 13.9599 111.181 13.3207C111.172 12.6761 111.29 12.0359 111.53 11.4374C111.761 10.8807 112.113 10.3707 112.563 9.94183C112.997 9.51739 113.523 9.18072 114.108 8.95405C114.717 8.72688 115.362 8.61462 116.012 8.62294C116.677 8.61403 117.338 8.72623 117.962 8.95405C118.551 9.17961 119.081 9.51628 119.518 9.94294C119.969 10.3718 120.32 10.8807 120.551 11.4374C121.017 12.6494 121.017 13.991 120.551 15.2029L120.557 15.2107Z" fill="var(--fill-0, #17191B)"/>
</g>
<defs>
<clipPath id="clip0_0_6">
<rect width="124.444" height="26.6667" fill="white"/>
</clipPath>
</defs>
</svg>
