<svg preserveAspectRatio="none" width="100%" height="100%" overflow="visible" style="display: block;" viewBox="0 0 95.3143 32" fill="none" xmlns="http://www.w3.org/2000/svg">
<g id="Frame" clip-path="url(#clip0_0_82)">
<path id="Vector" d="M0.979068 17.5974C-0.268932 16.877 -0.268932 15.0758 0.979068 14.3554L10.8063 8.68153C12.0543 7.96107 13.6143 8.86164 13.6143 10.3026V21.6502C13.6143 23.0911 12.0543 23.9917 10.8063 23.2712L0.979068 17.5974ZM15.9539 9.1741C14.7059 8.45364 14.7059 6.65227 15.9539 5.93181L25.7811 0.258212C27.0291 -0.462245 28.5889 0.438326 28.5889 1.87924V13.2267C28.5889 14.6676 27.0291 15.5684 25.7811 14.8479L15.9539 9.1741ZM15.9539 26.0207C14.7059 25.3003 14.7059 23.4991 15.9539 22.7787L25.7811 17.1048C27.0291 16.3844 28.5889 17.285 28.5889 18.7259V30.0735C28.5889 31.5144 27.0291 32.415 25.7811 31.6946L15.9539 26.0207ZM34.8959 24.4157V12.1636H37.7834V24.4157H34.8959ZM36.3475 10.4246C35.8902 10.4246 35.4968 10.2731 35.167 9.96976C34.8374 9.66141 34.6723 9.29181 34.6723 8.86118C34.6723 8.42507 34.8374 8.05547 35.167 7.75261C35.4968 7.44404 35.8902 7.28975 36.3475 7.28975C36.8102 7.28975 37.2038 7.44404 37.5281 7.75238C37.8577 8.05547 38.0227 8.42507 38.0227 8.86096C38.0227 9.29181 37.8577 9.66141 37.5281 9.96998C37.2038 10.2731 36.8102 10.4246 36.3475 10.4246ZM43.6401 17.2367V24.4157H40.7526V12.1636H43.5126V14.2454H43.6561C43.9379 13.5595 44.3873 13.0143 45.0042 12.6102C45.6264 12.2061 46.3948 12.004 47.3096 12.004C48.1551 12.004 48.8915 12.1846 49.519 12.5464C50.1519 12.908 50.641 13.4317 50.9866 14.1179C51.3377 14.8036 51.5105 15.636 51.5052 16.6146V24.4157H48.6177V17.0612C48.6177 16.2422 48.4049 15.6015 47.9795 15.1389C47.5594 14.676 46.977 14.4447 46.2326 14.4447C45.7274 14.4447 45.278 14.5565 44.8847 14.7798C44.4963 14.9979 44.1905 15.3142 43.9672 15.7291C43.7491 16.1439 43.6401 16.6463 43.6401 17.2367ZM60.5587 12.1636V14.397H53.5153V12.1636H60.5587ZM55.2543 9.22804H58.1418V20.7304C58.1418 21.1186 58.2003 21.4164 58.3174 21.6239C58.4396 21.826 58.5992 21.9643 58.796 22.0386C58.9926 22.1131 59.2106 22.1503 59.4499 22.1503C59.6307 22.1503 59.7955 22.1371 59.9446 22.1103C60.0625 22.0913 60.1795 22.0673 60.2954 22.0386L60.782 24.2959C60.6278 24.3492 60.4072 24.4077 60.1201 24.4715C59.8383 24.5352 59.4924 24.5725 59.0831 24.5832C58.3599 24.6045 57.7084 24.4955 57.1288 24.2562C56.5491 24.0116 56.0892 23.634 55.7489 23.1234C55.4138 22.613 55.249 21.9748 55.2543 21.2091V9.22804ZM62.9736 24.4157V12.1636H65.7736V14.2056H65.9011C66.1244 13.4982 66.5073 12.9531 67.0497 12.5702C67.5976 12.1821 68.2223 11.988 68.9242 11.988C69.0838 11.988 69.262 11.996 69.4586 12.012C69.6607 12.0226 69.8282 12.0413 69.9612 12.0678V14.7238C69.839 14.6815 69.6449 14.6443 69.3788 14.6123C69.1279 14.5758 68.8747 14.5571 68.6211 14.5565C68.0947 14.5565 67.6214 14.6708 67.2012 14.8994C66.7949 15.1148 66.4556 15.4377 66.2202 15.8328C65.9809 16.2317 65.8611 16.6916 65.8611 17.2127V24.4157H62.9736ZM75.1859 24.663C74.4095 24.663 73.7103 24.5247 73.0881 24.2482C72.4712 23.9663 71.982 23.5515 71.6204 23.0038C71.2641 22.4562 71.086 21.7807 71.086 20.9778C71.086 20.2863 71.2136 19.7147 71.4689 19.2628C71.7179 18.8172 72.0778 18.4435 72.5137 18.178C72.9551 17.9067 73.4524 17.7019 74.0054 17.5636C74.5741 17.4182 75.1526 17.3143 75.7363 17.2527C76.4543 17.1782 77.0364 17.1117 77.4833 17.0532C77.9299 16.9892 78.2543 16.8936 78.4563 16.7661C78.6639 16.6331 78.7674 16.4283 78.7674 16.1519V16.1039C78.7674 15.503 78.5894 15.0376 78.233 14.708C77.8767 14.3784 77.3635 14.2134 76.6936 14.2134C75.9864 14.2134 75.4252 14.3677 75.0104 14.6763C74.601 14.9846 74.3244 15.3487 74.1809 15.7688L71.4847 15.386C71.6975 14.6415 72.0486 14.0194 72.5377 13.5195C73.0268 13.0143 73.6252 12.6367 74.3324 12.3869C75.0396 12.1316 75.8214 12.004 76.6776 12.004C77.268 12.004 77.8554 12.0731 78.4403 12.2114C79.0255 12.3496 79.5599 12.5782 80.0438 12.8973C80.5276 13.2111 80.916 13.6392 81.2083 14.1816C81.5062 14.724 81.655 15.4022 81.655 16.2157V24.4157H78.8792V22.7325H78.7834C78.6079 23.0728 78.3608 23.3919 78.0417 23.6898C77.7279 23.9823 77.3318 24.2189 76.8531 24.3997C76.3798 24.5752 75.8241 24.663 75.1859 24.663ZM75.9359 22.5412C76.5153 22.5412 77.0179 22.4269 77.4433 22.1983C77.8689 21.9643 78.1958 21.6557 78.4246 21.2728C78.6566 20.8965 78.7782 20.4626 78.7754 20.0205V18.5768C78.6851 18.6511 78.5308 18.7204 78.3128 18.7842C78.1002 18.8482 77.8609 18.9037 77.5948 18.9517C77.329 18.9997 77.0657 19.042 76.8051 19.0792C76.5446 19.1165 76.3187 19.1485 76.1272 19.175C75.6966 19.2335 75.311 19.3293 74.9706 19.4621C74.6303 19.5951 74.3617 19.7812 74.1649 20.0205C73.9681 20.2546 73.8698 20.5576 73.8698 20.9298C73.8698 21.4616 74.0639 21.8632 74.4522 22.1343C74.8403 22.4056 75.335 22.5412 75.9359 22.5412ZM89.903 24.655C88.6799 24.655 87.6296 24.3864 86.7521 23.8493C85.8801 23.3122 85.2074 22.5704 84.734 21.6239C84.2662 20.6719 84.0321 19.5764 84.0321 18.3375C84.0321 17.0932 84.2714 15.9949 84.75 15.0431C85.2287 14.0859 85.9039 13.3414 86.7761 12.8095C87.6536 12.2724 88.6904 12.004 89.887 12.004C90.8815 12.004 91.7615 12.1874 92.5272 12.5544C93.2984 12.916 93.9126 13.4292 94.3699 14.0939C94.8273 14.7533 95.0879 15.5243 95.1516 16.407H92.3916C92.2799 15.8168 92.014 15.325 91.5939 14.9314C91.1793 14.5325 90.6234 14.3332 89.927 14.3332C89.3366 14.3332 88.8182 14.4927 88.3713 14.8118C87.9247 15.1254 87.5763 15.5775 87.3265 16.1677C87.0819 16.7581 86.9596 17.4653 86.9596 18.2895C86.9596 19.1245 87.0819 19.8424 87.3265 20.4434C87.5711 21.0388 87.9142 21.4989 88.3555 21.8232C88.8022 22.1423 89.326 22.3019 89.927 22.3019C90.3523 22.3019 90.7324 22.2219 91.0675 22.0626C91.4059 21.8994 91.699 21.6556 91.921 21.3526C92.1496 21.044 92.3066 20.6692 92.3916 20.228H95.1516C95.0824 21.0948 94.8273 21.863 94.3859 22.5332C93.9443 23.1979 93.3436 23.719 92.5832 24.0966C91.8227 24.4687 90.9292 24.655 89.903 24.655Z" fill="var(--fill-0, #17191B)"/>
</g>
<defs>
<clipPath id="clip0_0_82">
<rect width="95.3143" height="32" fill="white"/>
</clipPath>
</defs>
</svg>
