<svg preserveAspectRatio="none" width="100%" height="100%" overflow="visible" style="display: block;" viewBox="0 0 84.6667 28.6667" fill="none" xmlns="http://www.w3.org/2000/svg">
<g id="Frame" clip-path="url(#clip0_0_32)">
<path id="Vector" fill-rule="evenodd" clip-rule="evenodd" d="M83.5688 25.9717C83.4295 25.8829 83.2802 25.8141 83.1202 25.7623C82.9608 25.7123 82.8122 25.6594 82.6728 25.6049C82.5335 25.5501 82.4182 25.486 82.3282 25.4125C82.2375 25.3389 82.1922 25.238 82.1922 25.1106C82.1922 24.9522 82.2562 24.8259 82.3835 24.7315C82.5115 24.6374 82.6775 24.5901 82.8815 24.5901C83.0408 24.5901 83.2035 24.6148 83.3688 24.6637C83.5342 24.7128 83.6982 24.7863 83.8615 24.8843V24.2111C83.5162 24.0687 83.1728 23.9972 82.8315 23.9972C82.6315 23.9972 82.4462 24.0244 82.2782 24.0791C82.1095 24.1339 81.9642 24.2111 81.8435 24.3102C81.7228 24.4102 81.6295 24.529 81.5635 24.6666C81.4962 24.8042 81.4628 24.9551 81.4628 25.121C81.4628 25.3473 81.5075 25.5283 81.5995 25.6641C81.6895 25.799 81.8048 25.9113 81.9442 25.997C82.0835 26.0837 82.2328 26.1527 82.3928 26.2036C82.5515 26.2545 82.7008 26.3073 82.8402 26.362C82.9788 26.4166 83.0935 26.4827 83.1855 26.5601C83.2755 26.6372 83.3208 26.742 83.3208 26.873C83.3208 27.0389 83.2548 27.1729 83.1242 27.2738C82.9922 27.3756 82.8208 27.4275 82.6088 27.4275C82.2568 27.4275 81.9002 27.3105 81.5408 27.0767V27.7603C81.7255 27.847 81.9122 27.9122 82.1002 27.9554C82.2868 27.9989 82.4735 28.0197 82.6588 28.0197C82.8635 28.0197 83.0508 27.9923 83.2208 27.9357C83.3915 27.8791 83.5382 27.7999 83.6608 27.6981C83.7835 27.5963 83.8782 27.4736 83.9468 27.3313C84.0155 27.188 84.0502 27.0314 84.0502 26.8617C84.0502 26.6354 84.0048 26.4535 83.9135 26.3138C83.8235 26.1742 83.7082 26.0601 83.5688 25.9717ZM52.198 24.0644H52.8212L54.3293 27.9519H53.6114L53.2604 27.0194H51.7523L51.4022 27.9519H50.6901L52.198 24.0644ZM58.8311 24.0644C59.0244 24.0644 59.2006 24.0945 59.3622 24.1549C59.5238 24.2151 59.6631 24.2991 59.7792 24.4057C59.8962 24.5131 59.9871 24.6423 60.0522 24.7931C60.1173 24.944 60.1498 25.1099 60.1498 25.29C60.1498 25.5541 60.0818 25.7831 59.9464 25.9793C59.8117 26.1755 59.6214 26.3188 59.3762 26.4093L60.2833 27.9519H59.4932L58.6696 26.5102H58.2127V27.9519H57.5013V24.0644H58.8311ZM72.3308 24.0644V24.6686H70.7395V25.6804H72.1142V26.2735H70.7395V27.3475H72.3748V27.9519H70.0162V24.0644H72.3308ZM15.8879 26.7705V24.0644H16.5732V27.9519H15.9391L14.0298 25.2447V27.9519H13.3454V24.0644H13.9742L15.8879 26.7705ZM45.6592 25.7983L46.8838 24.0644H47.5236V27.9519H46.8383V25.2447L45.8764 26.6064H45.4372L44.4853 25.2447V27.9519H43.8009V24.0644H44.4296L45.6592 25.7983ZM64.4788 25.6747L65.9312 24.0644H66.7995L65.1074 25.9746L66.8495 27.9519H65.9702L64.4788 26.2735V27.9519H63.7667V24.0644H64.4788V25.6747ZM33.5065 24.0644C33.6995 24.0644 33.8778 24.0954 34.0432 24.1576C34.2085 24.2199 34.3496 24.3047 34.4666 24.414C34.5836 24.5235 34.6746 24.6546 34.7414 24.8073C34.8082 24.9601 34.8417 25.1289 34.8417 25.3127C34.8417 25.4975 34.8082 25.6663 34.7414 25.8182C34.6746 25.9709 34.5836 26.102 34.4666 26.2113C34.3496 26.3206 34.2085 26.4055 34.0432 26.4659C33.8778 26.5251 33.6995 26.5564 33.5065 26.5564H32.8666V27.9519H32.1544V24.0644H33.5065ZM21.4029 25.6351L22.299 24.0644H23.1339L21.7706 26.3188V27.9519H21.036V26.3188L19.673 24.0644H20.5023L21.4029 25.6351ZM76.5602 24.6686H75.3962V24.0644H78.4468V24.6686H77.2888V27.9519H76.5602V24.6686ZM28.5542 24.0644V24.6686H26.9626V25.6804H28.337V26.2735H26.9626V27.3475H28.5979V27.9519H26.2391V24.0644H28.5542ZM1.14749 25.6691H2.92282V24.0644H3.65181V27.9519H2.92282V26.2735H1.14749V27.9519H0.424963V24.0644H1.14749V25.6691ZM7.43016 24.0644H9.74529V24.6686H8.15356V25.6804H9.52796V26.2735H8.15356V27.3475H9.78982V27.9519H7.43016V24.0644ZM53.0607 26.4659L52.5091 24.9911L51.9584 26.4659H53.0607ZM33.406 24.6517H32.8667V25.9681H33.406C33.6142 25.9681 33.7822 25.9076 33.913 25.7879C34.0423 25.6673 34.1072 25.5089 34.1072 25.3127C34.1072 25.1129 34.0423 24.9535 33.913 24.8327C33.7822 24.7121 33.6142 24.6517 33.406 24.6517ZM58.7308 25.9228C58.9314 25.9228 59.0948 25.8633 59.2203 25.7447C59.3464 25.6268 59.4097 25.4749 59.4097 25.2901C59.4097 25.1025 59.3464 24.9488 59.2203 24.83C59.0948 24.7112 58.9314 24.6517 58.7308 24.6517H58.2127V25.9228H58.7308ZM56.687 12.3662C55.8624 13.8824 54.2968 14.8225 52.5881 14.8225C50.0084 14.8225 47.91 12.6887 47.91 10.0693C47.91 7.44694 50.0084 5.31614 52.5881 5.31614C54.2986 5.31614 55.8642 6.25618 56.687 7.77327L56.6955 7.76854L60.9308 5.01335C59.1822 2.03663 56.0249 0.203621 52.5881 0.203621C50.0122 0.203621 47.5784 1.23418 45.7342 3.10679C43.89 4.9785 42.8741 7.45174 42.8741 10.0693C42.8741 12.6849 43.89 15.1589 45.7342 17.0297C47.5784 18.9015 50.0122 19.9329 52.5881 19.9329C56.09 19.9329 59.3019 18.0311 61.03 14.9525L56.7316 12.3907L56.687 12.3662ZM6.07278 7.59494H13.5276V0.204528H19.1752V19.932H13.5276V12.5407H6.07278V19.932H0.424963V0.204528H6.07278V7.59494ZM74.3888 6.96334L78.4308 0.203621H84.0788V19.932H78.4308V8.77647L74.3888 15.3447L70.3455 8.77647V19.932H64.698V0.203621H70.3455L74.3888 6.96334ZM35.9225 9.99827L29.7864 19.8621H23.8943L30.0324 9.99827L23.8943 0.134635H29.7864L35.9225 9.99827ZM42.0599 0.134635L38.8618 5.2743L38.5756 5.73346L35.6236 1.01629L35.0722 0.134635H42.0599Z" fill="var(--fill-0, #17191B)"/>
</g>
<defs>
<clipPath id="clip0_0_32">
<rect width="84.6667" height="28.6667" fill="white"/>
</clipPath>
</defs>
</svg>
