<svg preserveAspectRatio="none" width="100%" height="100%" overflow="visible" style="display: block;" viewBox="0 0 104.806 26.6667" fill="none" xmlns="http://www.w3.org/2000/svg">
<g id="Frame">
<path id="Vector" d="M10.2641 8.57106H1.79448V10.8935H3.17277V23.4186H5.8811V17.4161H10.6396V15.0938H5.8811V10.8935H8.74796C8.80973 10.887 8.87218 10.8944 8.93072 10.9151C8.98926 10.9358 9.04247 10.9694 9.08638 11.0133C9.13035 11.0572 9.1639 11.1104 9.18461 11.169C9.20533 11.2275 9.21271 11.2899 9.20626 11.3518V12.2511H11.6734V9.99413C11.6837 9.00865 11.2668 8.57106 10.2641 8.57106Z" fill="var(--fill-0, #17191B)"/>
<path id="Vector_2" d="M15.5551 20.7193V14.1724C15.5551 13.1904 15.1347 12.7528 14.1527 12.7528H11.6959V15.0098H12.4609C12.5233 15.0018 12.5866 15.0083 12.6461 15.0288C12.7056 15.0492 12.7595 15.083 12.8038 15.1277C12.8482 15.1723 12.8816 15.2265 12.9016 15.2861C12.9216 15.3457 12.9276 15.4092 12.9192 15.4715V21.9942C12.9192 22.9969 13.3395 23.4173 14.3215 23.4173H16.8507V21.1775H16.0134C15.9516 21.184 15.8892 21.1767 15.8306 21.1559C15.7721 21.1352 15.7189 21.1016 15.675 21.0577C15.631 21.0138 15.5975 20.9606 15.5767 20.9021C15.556 20.8435 15.5486 20.7811 15.5551 20.7193Z" fill="var(--fill-0, #17191B)"/>
<path id="Vector_3" d="M22.4532 12.5027C19.2556 12.5027 17.04 14.8009 17.04 18.0847C17.04 21.1169 19.2349 23.6667 22.7668 23.6667C24.3437 23.6693 25.8676 23.0973 27.0532 22.0575L25.9472 20.2175C25.1153 20.9443 24.06 21.3649 22.9563 21.4098C22.1544 21.4466 21.3701 21.1673 20.7721 20.6318C20.1741 20.0963 19.8102 19.3474 19.7587 18.5464H27.1187C27.1187 18.5464 27.1807 17.8573 27.1807 17.5609C27.1807 14.7389 25.5234 12.5027 22.4532 12.5027ZM19.8413 16.7064C19.9386 16.0904 20.258 15.5313 20.7391 15.1345C21.2202 14.7378 21.83 14.5309 22.4532 14.5528C23.542 14.5528 24.4207 15.4281 24.462 16.7064H19.8413Z" fill="var(--fill-0, #17191B)"/>
<path id="Vector_4" d="M31.1323 20.7206V9.99413C31.1323 9.00865 30.6947 8.57106 29.7092 8.57106H27.18V10.828H28.0174C28.0798 10.8201 28.1431 10.8265 28.2026 10.847C28.2621 10.8674 28.316 10.9012 28.3603 10.9459C28.4047 10.9905 28.4381 11.0447 28.4581 11.1043C28.4781 11.164 28.4841 11.2274 28.4757 11.2897V21.9955C28.4757 22.9982 28.896 23.4186 29.8987 23.4186H32.4141V21.1789H31.5906C31.5288 21.1854 31.4664 21.1779 31.4078 21.1572C31.3492 21.1365 31.2961 21.103 31.2521 21.0591C31.2082 21.0151 31.1746 20.9619 31.1539 20.9033C31.1332 20.8448 31.1258 20.7824 31.1323 20.7206Z" fill="var(--fill-0, #17191B)"/>
<path id="Vector_5" d="M43.4049 20.7206V9.99413C43.4049 9.00865 42.9638 8.57106 41.9818 8.57106H39.4526V10.828H40.2865C40.349 10.8202 40.4124 10.8267 40.472 10.8472C40.5316 10.8676 40.5858 10.9014 40.6303 10.9459C40.6748 10.9904 40.7086 11.0446 40.7291 11.1041C40.7495 11.1637 40.7561 11.2272 40.7482 11.2897V13.1711C40.7482 13.5156 40.7689 13.7982 40.7689 13.7982H40.7276C40.7276 13.7982 39.9729 12.5026 37.6539 12.5026C34.8319 12.5026 32.8024 14.6975 32.8024 18.0846C32.8024 21.389 34.6631 23.6666 37.5471 23.6666C39.9936 23.6666 40.8722 21.9438 40.8722 21.9438H40.9136V22.3401C40.9136 22.9672 41.2582 23.4289 42.2333 23.4289H44.6798V21.1789H43.8631C43.8013 21.1854 43.7389 21.178 43.6804 21.1572C43.6218 21.1365 43.5686 21.103 43.5247 21.0591C43.4808 21.0151 43.4472 20.9619 43.4265 20.9033C43.4058 20.8448 43.3984 20.7823 43.4049 20.7206ZM38.1329 21.4304C36.5651 21.4304 35.5004 20.1141 35.5004 18.0846C35.5004 15.9724 36.7133 14.7802 38.1742 14.7802C39.9522 14.7802 40.8102 16.4135 40.8102 18.064C40.8102 20.4277 39.5146 21.4304 38.1329 21.4304Z" fill="var(--fill-0, #17191B)"/>
<path id="Vector_6" d="M67.4493 20.7206V12.7541H64.8031V17.647C64.8031 19.549 63.7383 21.2409 61.8123 21.2409C60.4961 21.2409 60.1618 20.3657 60.1618 19.0666V14.1531C60.1618 13.1917 59.7449 12.7541 58.7594 12.7541H56.3474C56.0752 10.2284 54.2248 8.57106 51.6578 8.57106H44.8663V10.8935H46.2446V23.4186H48.9529V18.2948H51.6475C53.8768 18.2948 55.5652 17.0061 56.151 15.0111H57.0434C57.1058 15.0031 57.1692 15.0096 57.2287 15.03C57.2882 15.0505 57.3421 15.0843 57.3864 15.129C57.4307 15.1736 57.4642 15.2278 57.4842 15.2874C57.5042 15.3471 57.5102 15.4105 57.5017 15.4728V19.6077C57.5017 22.5158 58.9042 23.6632 61.1817 23.6632C61.9419 23.6796 62.6908 23.4801 63.3426 23.088C63.9938 22.6958 64.5203 22.127 64.862 21.4477H64.9066C64.9066 21.4477 64.8825 21.6785 64.8825 21.93V22.2229C64.8825 22.974 65.3649 23.4151 66.2846 23.4151H68.7311V21.1789H67.9045C67.8431 21.1848 67.7811 21.177 67.7228 21.1561C67.6645 21.1351 67.6118 21.1014 67.5683 21.0576C67.5249 21.0137 67.4914 20.9607 67.471 20.9024C67.4505 20.8442 67.4431 20.782 67.4493 20.7206ZM51.1616 15.9518H48.9529V10.8935H51.1892C52.695 10.8935 53.5736 11.8755 53.5736 13.4019C53.5736 14.9284 52.7087 15.9518 51.1616 15.9518Z" fill="var(--fill-0, #17191B)"/>
<path id="Vector_7" d="M72.0188 20.7206V9.99413C72.0188 9.00865 71.581 8.57106 70.5993 8.57106H68.0697V10.828H68.9038C68.9664 10.8202 69.0297 10.8267 69.0892 10.8472C69.1488 10.8676 69.2033 10.9014 69.2474 10.9459C69.292 10.9904 69.3261 11.0446 69.3466 11.1041C69.367 11.1637 69.3733 11.2272 69.3658 11.2897V21.9955C69.3658 22.9982 69.7826 23.4186 70.7853 23.4186H73.297V21.1789H72.4802C72.4182 21.1859 72.3556 21.1789 72.2967 21.1585C72.2377 21.138 72.1838 21.1045 72.1398 21.0605C72.0951 21.0165 72.0616 20.9631 72.0405 20.9043C72.0195 20.8455 72.012 20.7827 72.0188 20.7206Z" fill="var(--fill-0, #17191B)"/>
<path id="Vector_8" d="M76.6692 15.5142C76.6692 14.887 77.3173 14.5528 78.2581 14.5528C78.8435 14.5528 79.5945 14.8009 79.5945 15.304V15.8278H81.9381V14.7182C81.9381 12.9954 79.6361 12.5027 78.1961 12.5027C75.9765 12.5027 74.0609 13.4847 74.0609 15.6038C74.0609 19.0495 79.6844 19.0322 79.6844 20.538C79.6844 21.2478 79.0575 21.5717 78.2438 21.5717C76.4249 21.5717 75.0637 20.0039 75.0637 20.0039L73.8097 21.7268C74.3672 22.347 75.0513 22.8409 75.8153 23.1755C76.5793 23.51 77.4066 23.6775 78.2407 23.6667C80.5595 23.6667 82.3375 22.4124 82.3375 20.407C82.3344 16.8511 76.6692 17.1853 76.6692 15.5142Z" fill="var(--fill-0, #17191B)"/>
<path id="Vector_9" d="M92.8927 17.5609C92.8927 14.7389 91.222 12.5027 88.1689 12.5027C84.9714 12.5027 82.7519 14.8009 82.7519 18.0847C82.7519 21.1169 84.9503 23.6667 88.4821 23.6667C90.0592 23.6693 91.5835 23.0973 92.7686 22.0575L91.6592 20.2175C90.8288 20.9438 89.7745 21.3644 88.6719 21.4098C87.8706 21.4448 87.088 21.1647 86.4908 20.6295C85.8936 20.0943 85.5302 19.3465 85.4775 18.5464H92.8381C92.8381 18.5464 92.8927 17.8745 92.8927 17.5609ZM85.5568 16.7064C85.6536 16.0901 85.973 15.5305 86.4542 15.1337C86.9355 14.7368 87.5457 14.5301 88.1689 14.5528C89.2579 14.5528 90.133 15.4281 90.1776 16.7064H85.5568Z" fill="var(--fill-0, #17191B)"/>
<path id="Vector_10" d="M13.9887 11.4964C14.2741 11.4873 14.5503 11.3935 14.7823 11.2271C15.0142 11.0607 15.1915 10.829 15.2916 10.5616C15.3916 10.2942 15.4099 10.0031 15.3442 9.72524C15.2785 9.44741 15.1317 9.19538 14.9224 9.00115C14.7131 8.80691 14.4508 8.67929 14.1689 8.63445C13.8869 8.58961 13.598 8.62955 13.3388 8.74924C13.0795 8.86893 12.8617 9.06298 12.7131 9.30676C12.5644 9.55048 12.4914 9.8329 12.5036 10.1182C12.5197 10.4971 12.6847 10.8545 12.9628 11.1126C13.2409 11.3706 13.6095 11.5086 13.9887 11.4964Z" fill="var(--fill-0, #17191B)"/>
<path id="Vector_11" d="M94.3315 10.8072C93.942 10.4218 93.5166 10.0756 93.0595 9.7735L92.7153 9.53915L92.2019 11.4963L92.36 11.6204C92.7916 11.9555 93.1792 12.3432 93.5147 12.7747L93.635 12.9332L95.5991 12.4129L95.3646 12.0683C95.0639 11.6139 94.7178 11.1914 94.3315 10.8072Z" fill="var(--fill-0, #17191B)"/>
<path id="Vector_12" d="M97.1946 7.94994C96.2935 7.04458 95.2597 6.28229 94.1279 5.6896L93.7837 5.51386L93.2802 7.39869L93.4836 7.51236C94.3394 8.00526 95.1257 8.60892 95.8234 9.30759C96.5068 9.98715 97.0978 10.7542 97.5803 11.5886L97.7322 11.8505L99.6138 11.3474L99.4414 11.0028C98.8529 9.87646 98.095 8.84687 97.1946 7.94994Z" fill="var(--fill-0, #17191B)"/>
<path id="Vector_13" d="M103.297 10.0066C102.463 8.22376 101.322 6.60224 99.9237 5.21708C99.6682 4.96209 99.4065 4.71745 99.1244 4.46591L98.952 4.31431C98.6313 4.03865 98.3008 3.77677 97.9628 3.52524L97.8524 3.44599C96.9985 2.82572 96.0856 2.29026 95.1269 1.84719L94.8031 1.69902L94.3002 3.59071L94.5278 3.69752C97.538 5.16902 99.9715 7.60262 101.443 10.613L101.554 10.837L103.442 10.3339L103.297 10.0066Z" fill="var(--fill-0, #17191B)"/>
</g>
</svg>
