<svg preserveAspectRatio="none" width="100%" height="100%" overflow="visible" style="display: block;" viewBox="0 0 124.853 23.3283" fill="none" xmlns="http://www.w3.org/2000/svg">
<g id="Group">
<path id="Vector" d="M10.8005 14.9039C11.8085 15.84 12.3125 16.992 12.3125 18.3601C12.3125 19.0081 12.1685 19.6562 11.9525 20.2322C11.6645 20.8802 11.3045 21.3122 10.8725 21.8162C10.4404 22.2483 9.86443 22.6083 9.28837 22.8243C8.64037 23.0403 8.06432 23.1843 7.41632 23.1843H0V6.62358H7.34432C7.99232 6.62358 8.64037 6.76758 9.21637 6.98358C9.86443 7.19963 10.3684 7.63163 10.8005 7.99163C11.3045 8.42368 11.5925 8.92768 11.8805 9.57568C12.1685 10.2237 12.2405 10.7997 12.2405 11.4478C12.3125 12.8158 11.8085 13.9679 10.8005 14.9039ZM7.34432 9.35968H2.80812V13.5359H7.34432C7.63232 13.5359 7.92032 13.4639 8.13637 13.3198C8.42437 13.2478 8.64037 13.0318 8.78437 12.8158C8.92837 12.5998 9.14437 12.3838 9.28837 12.1678C9.36043 11.9518 9.43243 11.6638 9.43243 11.3758C9.43243 11.0878 9.36043 10.8718 9.28837 10.5837C9.21637 10.3677 9.07237 10.0797 8.78437 9.93574C8.56837 9.71974 8.35237 9.57568 8.13637 9.50368C7.92032 9.43168 7.63232 9.35968 7.34432 9.35968ZM7.34432 20.4482C7.63232 20.4482 7.92032 20.3762 8.13637 20.3042C8.42437 20.2322 8.64037 20.0882 8.78437 19.8722C9.00037 19.6562 9.14437 19.4401 9.28837 19.2241C9.36043 19.0081 9.43243 18.7201 9.43243 18.4321C9.43243 18.1441 9.36043 17.9281 9.28837 17.6401C9.21637 17.4241 9.07237 17.1361 8.85637 16.992C8.64037 16.776 8.42437 16.632 8.20837 16.488C7.92032 16.416 7.70432 16.272 7.34432 16.272H2.80812V20.4482H7.34432Z" fill="var(--fill-0, #17191B)"/>
<path id="Vector_2" d="M27.5058 6.62358V9.43168H19.0094V13.6079H23.8336V16.344H19.0094V20.5202H27.5058V23.3283H16.2733V6.76758H27.5058V6.62358Z" fill="var(--fill-0, #17191B)"/>
<path id="Vector_3" d="M65.0173 16.2716C65.0173 18.2157 64.2973 19.7997 62.9293 21.1678C61.4893 22.4638 59.8333 23.1839 57.9613 23.1839C56.0167 23.1839 54.3607 22.5358 52.9928 21.1678C51.6248 19.7997 50.9767 18.1437 50.9767 16.2716V6.62313H53.7847V16.3436C53.7847 17.4956 54.2167 18.4317 55.0087 19.2957C55.8727 20.0877 56.8807 20.5197 58.0333 20.5197C59.1853 20.5197 60.1933 20.0877 60.9853 19.2957C61.8493 18.5037 62.2813 17.4956 62.2813 16.3436V6.62313H65.0893L65.0173 16.2716Z" fill="var(--fill-0, #17191B)"/>
<path id="Vector_4" d="M78.9161 20.4479H71.1396L69.6996 23.256H66.5316L75.0276 6.69528L83.5241 23.256H80.3561L78.9161 20.4479ZM72.5076 17.6398H77.4756L74.9556 12.7435L72.5076 17.6398Z" fill="var(--fill-0, #17191B)"/>
<path id="Vector_5" d="M86.3304 6.62313L97.563 16.5596V6.62313H100.371V23.1839L89.067 13.2475V23.1839H86.2584L86.3304 6.62313Z" fill="var(--fill-0, #17191B)"/>
<path id="Vector_6" d="M103.683 6.62313H116.356V9.43129H111.459V23.2559H108.651V9.35929H103.683V6.62313Z" fill="var(--fill-0, #17191B)"/>
<path id="Vector_7" d="M44.2805 20.16L45.1445 19.944L45.3605 19.656C46.3685 18.216 46.9446 16.6319 46.9446 14.8318C46.9446 12.5997 46.0805 10.5836 44.4245 8.99954C42.7684 7.41548 40.8243 6.55143 38.4482 6.55143C36.0721 6.55143 34.128 7.34348 32.4719 8.99954C30.8159 10.5836 29.9518 12.5997 29.9518 14.8318C29.9518 17.1359 30.8159 19.08 32.4719 20.6641C34.128 22.2481 36.0721 23.1122 38.4482 23.1122C39.9602 23.1122 41.3283 22.7521 42.6244 22.0321L41.0403 19.8C40.3202 20.16 39.4562 20.376 38.5202 20.376C36.9361 20.376 35.6401 19.872 34.488 18.792C33.408 17.7119 32.8319 16.4159 32.8319 14.9038C32.8319 13.3918 33.408 12.0957 34.488 11.0156C35.6401 9.93559 36.9361 9.35959 38.5202 9.35959C40.1042 9.35959 41.4003 9.93559 42.4804 11.0156C43.5604 12.0957 44.1364 13.3918 44.1364 14.9038C44.1364 16.1999 43.7044 17.3519 42.9124 18.36L42.9844 19.152" fill="var(--fill-0, #17191B)"/>
<path id="Vector_8" d="M46.8742 21.2401L44.8582 23.1841L38.9539 15.6238" fill="var(--fill-0, #17191B)"/>
<path id="Vector_9" fill-rule="evenodd" clip-rule="evenodd" d="M121.541 6.12044C123.125 6.12044 124.349 4.82439 124.349 3.31228C124.349 1.80023 123.053 0.504183 121.541 0.504183C119.957 0.504183 118.733 1.80023 118.733 3.31228C118.733 4.82439 119.957 6.12044 121.541 6.12044ZM121.541 6.62444C123.413 6.62444 124.853 5.18439 124.853 3.31228C124.853 1.44023 123.413 0.000161814 121.541 0.000161814C119.669 0.000161814 118.229 1.44023 118.229 3.31228C118.229 5.18439 119.669 6.62444 121.541 6.62444Z" fill="var(--fill-0, #17191B)"/>
<path id="Vector_10" d="M122.26 4.67962L121.612 3.59956H120.964V4.60762H120.604V1.87151H121.684C121.9 1.87151 122.116 1.94351 122.332 2.08751C122.548 2.30351 122.548 2.44751 122.548 2.73551C122.548 2.95151 122.476 3.09556 122.404 3.23956C122.332 3.38356 122.188 3.45556 121.972 3.59956L122.62 4.67962H122.26ZM120.964 2.23151V3.23956H121.684C121.828 3.23956 121.9 3.16756 122.044 3.09556C122.116 3.02351 122.188 2.87951 122.188 2.73551C122.188 2.59151 122.116 2.44751 122.044 2.37551C121.972 2.30351 121.828 2.23151 121.684 2.23151H120.964Z" fill="var(--fill-0, #17191B)"/>
<path id="Vector_11" fill-rule="evenodd" clip-rule="evenodd" d="M122.188 4.6788L121.54 3.6708H121.036V4.6788H120.46V1.7987H121.612C121.9 1.7987 122.116 1.8707 122.26 2.0867C122.476 2.30275 122.548 2.51875 122.548 2.73475C122.548 2.95075 122.476 3.09475 122.332 3.31075C122.26 3.45475 122.116 3.5268 121.972 3.5988L122.62 4.7508H122.188V4.6788ZM121.972 3.5268C122.044 3.5268 122.044 3.5268 122.044 3.45475C122.188 3.38275 122.26 3.31075 122.404 3.16675C122.476 3.02275 122.548 2.80675 122.548 2.66275C122.548 2.44675 122.476 2.2307 122.332 2.0147C122.116 1.7987 121.972 1.7987 121.684 1.7987H120.532V4.6068H120.892V3.5988H121.54L122.188 4.6068H122.62L121.972 3.5268ZM121.972 3.09475C122.044 3.02275 122.116 2.87875 122.116 2.80675C122.116 2.73475 122.044 2.59075 121.972 2.51875C121.9 2.44675 121.756 2.37475 121.684 2.37475H121.036V3.23875H121.684C121.828 3.16675 121.9 3.09475 121.972 3.09475ZM120.964 3.23875V2.2307H121.684C121.828 2.2307 121.9 2.30275 122.044 2.37475C122.116 2.44675 122.188 2.59075 122.188 2.73475C122.188 2.87875 122.116 3.02275 122.044 3.09475C121.972 3.16675 121.828 3.23875 121.684 3.23875H120.964Z" fill="var(--fill-0, #17191B)"/>
</g>
</svg>
