<svg width="420" height="240" viewBox="0 0 420 240" fill="none" xmlns="http://www.w3.org/2000/svg">
<rect width="420" height="240" fill="#9CCEA8"/>
<g clip-path="url(#clip0_85_399)">
<path d="M164.301 108.441H180.938L180.292 115.811H168.216L167.998 118.308H180.073L179.525 124.595H167.449L166.882 131.109H158L159.605 112.761C159.814 110.376 161.915 108.441 164.301 108.441Z" fill="#17191B"/>
<path d="M182.761 120.936L183.854 108.441H192.786L191.712 120.722C191.512 122.991 192.251 124.446 194.735 124.446C197.218 124.446 198.292 122.991 198.487 120.722L199.561 108.441H208.414L207.326 120.857C206.657 128.519 202.421 131.867 194.084 131.867C185.746 131.867 182.096 128.519 182.761 120.936Z" fill="#17191B"/>
<path d="M227.259 115.811L225.92 131.114H217.067L218.406 115.811H210.473L211.12 108.441H235.843L235.196 115.811H227.259Z" fill="#17191B"/>
<path d="M260.303 116.391C262.371 114.411 262.579 111.27 260.765 109.376C258.952 107.482 255.806 107.552 253.737 109.532C251.669 111.512 251.462 114.653 253.275 116.547C255.088 118.441 258.235 118.371 260.303 116.391Z" fill="#17191B"/>
<path d="M251.244 118.187L247.924 108.441H237.815L242.368 121.796L237.671 131.109H247.729L250.63 125.413C251.807 123.102 252.03 120.489 251.244 118.183V118.187Z" fill="#17191B"/>
</g>
<defs>
<clipPath id="clip0_85_399">
<rect width="104" height="24" fill="white" transform="translate(158 108)"/>
</clipPath>
</defs>
</svg>
