<svg width="420" height="240" viewBox="0 0 420 240" fill="none" xmlns="http://www.w3.org/2000/svg">
<rect width="420" height="240" fill="#9C9CCE"/>
<g clip-path="url(#clip0_85_398)">
<path d="M162.979 121.598C161.731 120.877 161.731 119.076 162.979 118.356L172.806 112.682C174.054 111.961 175.614 112.862 175.614 114.303V125.65C175.614 127.091 174.054 127.992 172.806 127.271L162.979 121.598ZM177.954 113.174C176.706 112.454 176.706 110.653 177.954 109.932L187.781 104.258C189.029 103.538 190.589 104.439 190.589 105.879V117.227C190.589 118.668 189.029 119.569 187.781 118.848L177.954 113.174ZM177.954 130.021C176.706 129.301 176.706 127.499 177.954 126.779L187.781 121.105C189.029 120.385 190.589 121.285 190.589 122.726V134.074C190.589 135.515 189.029 136.415 187.781 135.695L177.954 130.021ZM196.896 128.416V116.164H199.783V128.416H196.896ZM198.348 114.425C197.89 114.425 197.497 114.273 197.167 113.97C196.837 113.662 196.672 113.292 196.672 112.861C196.672 112.425 196.837 112.056 197.167 111.753C197.497 111.444 197.89 111.29 198.348 111.29C198.81 111.29 199.204 111.444 199.528 111.753C199.858 112.056 200.023 112.425 200.023 112.861C200.023 113.292 199.858 113.662 199.528 113.97C199.204 114.273 198.81 114.425 198.348 114.425ZM205.64 121.237V128.416H202.753V116.164H205.513V118.246H205.656C205.938 117.56 206.387 117.015 207.004 116.61C207.626 116.206 208.395 116.004 209.31 116.004C210.155 116.004 210.892 116.185 211.519 116.547C212.152 116.908 212.641 117.432 212.987 118.118C213.338 118.804 213.511 119.636 213.505 120.615V128.416H210.618V121.061C210.618 120.242 210.405 119.602 209.98 119.139C209.559 118.676 208.977 118.445 208.233 118.445C207.727 118.445 207.278 118.557 206.885 118.78C206.496 118.998 206.191 119.314 205.967 119.729C205.749 120.144 205.64 120.647 205.64 121.237ZM222.559 116.164V118.397H215.515V116.164H222.559ZM217.254 113.228H220.142V124.731C220.142 125.119 220.2 125.417 220.317 125.624C220.44 125.826 220.599 125.965 220.796 126.039C220.993 126.113 221.211 126.151 221.45 126.151C221.631 126.151 221.796 126.137 221.945 126.111C222.062 126.092 222.18 126.068 222.295 126.039L222.782 128.296C222.628 128.349 222.407 128.408 222.12 128.472C221.838 128.535 221.492 128.573 221.083 128.583C220.36 128.605 219.708 128.496 219.129 128.256C218.549 128.012 218.089 127.634 217.749 127.124C217.414 126.613 217.249 125.975 217.254 125.209V113.228ZM224.974 128.416V116.164H227.774V118.206H227.901C228.124 117.498 228.507 116.953 229.05 116.57C229.598 116.182 230.222 115.988 230.924 115.988C231.084 115.988 231.262 115.996 231.459 116.012C231.661 116.023 231.828 116.042 231.961 116.068V118.724C231.839 118.682 231.645 118.645 231.379 118.613C231.128 118.576 230.875 118.557 230.621 118.557C230.095 118.557 229.621 118.671 229.201 118.9C228.795 119.115 228.456 119.438 228.22 119.833C227.981 120.232 227.861 120.692 227.861 121.213V128.416H224.974ZM237.186 128.663C236.409 128.663 235.71 128.525 235.088 128.248C234.471 127.967 233.982 127.552 233.62 127.004C233.264 126.456 233.086 125.781 233.086 124.978C233.086 124.287 233.214 123.715 233.469 123.263C233.718 122.817 234.078 122.444 234.514 122.178C234.955 121.907 235.452 121.702 236.005 121.564C236.574 121.418 237.153 121.315 237.736 121.253C238.454 121.178 239.036 121.112 239.483 121.053C239.93 120.989 240.254 120.894 240.456 120.766C240.664 120.633 240.767 120.429 240.767 120.152V120.104C240.767 119.503 240.589 119.038 240.233 118.708C239.877 118.379 239.364 118.214 238.694 118.214C237.986 118.214 237.425 118.368 237.01 118.677C236.601 118.985 236.324 119.349 236.181 119.769L233.485 119.386C233.697 118.642 234.049 118.02 234.538 117.52C235.027 117.015 235.625 116.637 236.332 116.387C237.04 116.132 237.821 116.004 238.678 116.004C239.268 116.004 239.855 116.073 240.44 116.212C241.025 116.35 241.56 116.578 242.044 116.898C242.528 117.211 242.916 117.639 243.208 118.182C243.506 118.724 243.655 119.402 243.655 120.216V128.416H240.879V126.733H240.783C240.608 127.073 240.361 127.392 240.042 127.69C239.728 127.983 239.332 128.219 238.853 128.4C238.38 128.575 237.824 128.663 237.186 128.663ZM237.936 126.541C238.515 126.541 239.018 126.427 239.443 126.199C239.869 125.965 240.196 125.656 240.425 125.273C240.657 124.897 240.778 124.463 240.775 124.021V122.577C240.685 122.651 240.531 122.721 240.313 122.784C240.1 122.848 239.861 122.904 239.595 122.952C239.329 123 239.066 123.042 238.805 123.079C238.545 123.117 238.319 123.149 238.127 123.175C237.697 123.234 237.311 123.33 236.971 123.462C236.63 123.595 236.362 123.781 236.165 124.021C235.968 124.255 235.87 124.558 235.87 124.93C235.87 125.462 236.064 125.863 236.452 126.135C236.84 126.406 237.335 126.541 237.936 126.541ZM251.903 128.655C250.68 128.655 249.63 128.387 248.752 127.85C247.88 127.312 247.207 126.571 246.734 125.624C246.266 124.672 246.032 123.577 246.032 122.338C246.032 121.093 246.271 119.995 246.75 119.043C247.229 118.086 247.904 117.342 248.776 116.81C249.654 116.273 250.69 116.004 251.887 116.004C252.881 116.004 253.761 116.188 254.527 116.555C255.298 116.916 255.913 117.429 256.37 118.094C256.827 118.754 257.088 119.525 257.152 120.407H254.392C254.28 119.817 254.014 119.325 253.594 118.932C253.179 118.533 252.623 118.333 251.927 118.333C251.337 118.333 250.818 118.493 250.371 118.812C249.925 119.126 249.576 119.578 249.327 120.168C249.082 120.758 248.96 121.466 248.96 122.29C248.96 123.125 249.082 123.843 249.327 124.444C249.571 125.039 249.914 125.499 250.356 125.823C250.802 126.143 251.326 126.302 251.927 126.302C252.352 126.302 252.732 126.222 253.068 126.063C253.406 125.9 253.699 125.656 253.921 125.353C254.15 125.044 254.307 124.669 254.392 124.228H257.152C257.082 125.095 256.827 125.863 256.386 126.533C255.944 127.198 255.344 127.719 254.583 128.097C253.823 128.469 252.929 128.655 251.903 128.655Z" fill="#17191B"/>
</g>
<defs>
<clipPath id="clip0_85_398">
<rect width="95.3143" height="32" fill="white" transform="translate(162 104)"/>
</clipPath>
</defs>
</svg>
