<svg width="420" height="240" viewBox="0 0 420 240" fill="none" xmlns="http://www.w3.org/2000/svg">
<rect width="420" height="240" fill="#9CBFCE"/>
<g clip-path="url(#clip0_85_397)">
<path d="M149.111 118.902L152.639 115.689L164.665 128.326C165.006 128.714 165.385 128.84 165.707 128.852H158.767L149.111 118.902ZM171.685 122.116L168.157 125.329L155.784 112.34C155.444 111.952 155.065 111.826 154.743 111.814H161.681L171.685 122.116Z" fill="#17191B"/>
<path d="M161.682 111.814H154.741C154.69 111.811 154.64 111.811 154.59 111.814C154.383 111.826 154.212 111.881 154.099 111.922C153.8 112.04 153.104 112.416 153.104 113.393V130.044C150.492 130.044 148.37 127.889 148.37 125.23V113.393C148.37 110.719 149.956 108.378 152.412 107.424C153.093 107.159 153.815 107.016 154.545 107.002C154.59 107 154.626 107 154.669 107C156.409 107 158.097 107.743 159.314 109.13L161.682 111.814Z" fill="#17191B"/>
<path d="M158.764 128.853H165.703C165.753 128.856 165.803 128.856 165.854 128.853C166.061 128.841 166.232 128.786 166.345 128.744C166.645 128.627 167.34 128.251 167.34 127.273V110.623C169.953 110.623 172.074 112.777 172.074 115.436V127.273C172.074 129.949 170.489 132.289 168.032 133.243C167.313 133.523 166.548 133.667 165.777 133.666C164.895 133.664 164.024 133.473 163.223 133.105C162.422 132.738 161.709 132.203 161.132 131.536L158.764 128.853Z" fill="#17191B"/>
<path d="M193.598 112.978C191.819 112.978 190.112 113.627 188.853 114.781C187.597 115.937 186.889 117.501 186.889 119.135V127.688H190.49V118.872C190.49 118.498 190.571 118.127 190.727 117.781C190.882 117.435 191.112 117.12 191.4 116.856C191.694 116.588 192.037 116.379 192.409 116.238C193.175 115.947 194.021 115.947 194.787 116.238C195.165 116.381 195.508 116.591 195.796 116.856C196.085 117.12 196.313 117.435 196.47 117.781C196.626 118.126 196.707 118.498 196.707 118.872V127.688H200.307V119.134C200.307 117.501 199.601 115.936 198.342 114.781C197.085 113.627 195.378 112.978 193.598 112.978ZM218.8 117.276C218.375 116.327 217.759 115.475 216.991 114.774C216.199 114.049 215.274 113.484 214.268 113.108C212.133 112.37 209.812 112.37 207.677 113.108C206.67 113.483 205.745 114.049 204.952 114.774C204.184 115.475 203.568 116.327 203.142 117.276C202.341 119.226 202.341 121.414 203.142 123.365C203.561 124.319 204.175 125.175 204.943 125.878C205.729 126.612 206.654 127.181 207.662 127.554C209.812 128.296 212.149 128.296 214.299 127.554C215.308 127.182 216.233 126.612 217.018 125.878C217.787 125.175 218.4 124.319 218.818 123.365C219.224 122.402 219.427 121.365 219.416 120.32C219.425 119.274 219.215 118.237 218.8 117.276ZM215.43 122.185C215.194 122.751 214.843 123.263 214.4 123.688C213.973 124.116 213.452 124.455 212.87 124.684C211.643 125.123 210.302 125.123 209.076 124.684C208.507 124.464 207.991 124.128 207.558 123.699C207.118 123.277 206.772 122.766 206.542 122.2C206.085 120.985 206.085 119.645 206.542 118.43C206.772 117.865 207.118 117.354 207.558 116.931C207.991 116.502 208.507 116.167 209.076 115.947C210.303 115.507 211.646 115.507 212.873 115.947C213.452 116.174 213.973 116.509 214.403 116.931C214.851 117.362 215.2 117.872 215.428 118.43C215.888 119.638 215.888 120.972 215.428 122.179L215.43 122.185ZM223.328 114.519C222.803 114.996 222.381 115.574 222.087 116.219C221.8 116.849 221.652 117.534 221.651 118.226V127.686H225.253V118.154C225.253 117.878 225.311 117.605 225.426 117.35C225.541 117.095 225.71 116.864 225.922 116.669C226.135 116.474 226.387 116.319 226.665 116.214C226.945 116.108 227.242 116.054 227.541 116.055H229.561V112.98H227.377C226.628 112.978 225.885 113.113 225.185 113.378C224.499 113.637 223.868 114.024 223.328 114.519ZM251.583 114.336C250.997 113.81 250.31 113.408 249.563 113.155C248.767 112.89 247.933 112.759 247.093 112.768C246.072 112.747 245.059 112.963 244.136 113.401C243.551 113.692 243.027 114.09 242.589 114.574C242.153 114.087 241.628 113.688 241.042 113.398C240.113 112.964 239.096 112.749 238.07 112.768C237.235 112.76 236.404 112.89 235.611 113.155C234.868 113.412 234.182 113.812 233.591 114.33C233.016 114.825 232.556 115.439 232.243 116.13C231.94 116.828 231.787 117.583 231.796 118.344V127.899H235.386V118.344C235.379 117.992 235.445 117.644 235.577 117.314C235.699 117.017 235.888 116.747 236.13 116.52C236.369 116.295 236.658 116.12 236.976 116.006C237.335 115.883 237.713 115.823 238.092 115.828C238.466 115.824 238.836 115.884 239.183 116.006C239.501 116.12 239.788 116.296 240.026 116.52C240.27 116.746 240.459 117.017 240.581 117.314C240.712 117.644 240.777 117.992 240.77 118.344V127.899H244.372V118.344C244.367 117.991 244.431 117.64 244.56 117.311C244.687 117.011 244.875 116.74 245.111 116.516C245.347 116.291 245.627 116.117 245.933 116.006C246.28 115.884 246.649 115.824 247.021 115.828C247.401 115.823 247.779 115.883 248.138 116.006C248.457 116.12 248.745 116.295 248.983 116.52C249.226 116.747 249.415 117.017 249.538 117.314C249.67 117.644 249.735 117.992 249.728 118.344V127.899H253.329V118.344C253.337 117.586 253.19 116.834 252.896 116.136C252.594 115.448 252.146 114.834 251.583 114.336ZM268.965 112.978V114.178C268.631 113.909 268.272 113.672 267.893 113.47C266.67 112.839 265.308 112.525 263.931 112.557C262.799 112.544 261.674 112.73 260.607 113.108C259.605 113.471 258.688 114.035 257.911 114.765C257.151 115.464 256.548 116.317 256.142 117.267C255.747 118.236 255.55 119.274 255.565 120.32C255.556 121.371 255.752 122.413 256.142 123.388C256.527 124.324 257.117 125.177 257.875 125.896C258.639 126.632 259.551 127.2 260.549 127.561C261.625 127.939 262.76 128.124 263.9 128.109C265.288 128.121 266.656 127.783 267.879 127.127C268.277 126.905 268.647 126.645 268.981 126.349V127.688H272.445V112.978H268.965ZM268.557 122.21C268.326 122.768 267.975 123.277 267.525 123.706C267.079 124.138 266.55 124.474 265.969 124.694C265.342 124.919 264.679 125.028 264.012 125.016C263.362 125.024 262.716 124.911 262.108 124.682C261.532 124.459 261.007 124.121 260.567 123.688C260.121 123.265 259.768 122.754 259.53 122.187C259.291 121.594 259.173 120.959 259.181 120.32C259.172 119.676 259.291 119.035 259.53 118.437C259.761 117.88 260.113 117.37 260.563 116.941C260.997 116.517 261.523 116.18 262.108 115.954C262.717 115.726 263.363 115.614 264.012 115.622C264.677 115.614 265.338 115.726 265.962 115.954C266.551 116.179 267.081 116.516 267.518 116.942C267.969 117.371 268.32 117.88 268.551 118.437C269.017 119.649 269.017 120.99 268.551 122.202L268.557 122.21Z" fill="#17191B"/>
</g>
<defs>
<clipPath id="clip0_85_397">
<rect width="124.444" height="26.6667" fill="white" transform="translate(148 107)"/>
</clipPath>
</defs>
</svg>
