<svg width="420" height="240" viewBox="0 0 420 240" fill="none" xmlns="http://www.w3.org/2000/svg">
<rect width="420" height="240" fill="#DDBB8F"/>
<g clip-path="url(#clip0_85_400)">
<mask id="mask0_85_400" style="mask-type:luminance" maskUnits="userSpaceOnUse" x="140" y="109" width="141" height="23">
<path d="M140.435 109.025H280.47V131.098H140.435V109.025Z" fill="white"/>
</mask>
<g mask="url(#mask0_85_400)">
<path d="M143.126 117.641L143.246 119.011C144.183 118.05 145.601 117.281 147.548 117.281V120.381C145.073 120.381 143.775 121.751 143.343 122.953V130.739H140.435V117.641H143.126ZM161.246 124.201V125.163H151.514C151.874 127.133 153.412 128.238 155.119 128.238C156.729 128.238 157.738 127.83 158.531 126.868L160.789 128.599C159.9 129.896 157.425 131.097 155.118 131.097C150.745 131.097 148.605 127.445 148.605 124.224C148.605 121.004 151.104 117.28 155.118 117.304C159.227 117.327 161.245 121.341 161.245 124.201H161.246V124.201ZM151.562 122.639H158.291C158.003 121.245 156.584 120.068 155.071 120.068C154.288 120.064 153.524 120.312 152.892 120.775C152.261 121.238 151.794 121.891 151.562 122.639ZM161.414 117.641H164.345L168.119 124.971L169.584 122.087L167.517 117.641H170.353L173.957 124.971L177.466 117.641H180.47L173.981 131.098L170.953 125.259L168.166 131.099L161.413 117.641H161.414ZM191.861 130.738L191.717 129.104C190.828 130.305 189.243 131.075 187.633 131.075C183.835 131.075 180.832 128.167 180.832 124.177C180.832 120.189 183.836 117.281 187.632 117.281C189.29 117.281 190.828 118.098 191.717 119.275L191.837 117.641H194.553V130.738H191.861ZM187.728 119.9C185.397 119.9 183.643 121.847 183.643 124.177C183.643 126.509 185.397 128.407 187.729 128.407C190.059 128.407 191.766 126.509 191.766 124.177C191.766 121.847 189.939 119.9 187.728 119.9ZM200.417 117.641L200.537 119.011C201.473 118.05 202.891 117.281 204.838 117.281V120.381C202.363 120.381 201.065 121.751 200.633 122.953V130.739H197.725V117.641H200.417ZM216.997 130.737L216.853 129.104C215.964 130.305 214.379 131.074 212.768 131.074C208.972 131.074 205.968 128.167 205.968 124.177C205.968 120.189 208.972 117.281 212.768 117.281C214.426 117.281 215.964 118.098 216.853 119.275V112.714H219.689V130.737H216.997V130.737ZM212.865 119.9C210.533 119.9 208.779 121.847 208.779 124.177C208.779 126.509 210.533 128.407 212.865 128.407C215.195 128.407 216.902 126.509 216.902 124.177C216.902 121.847 215.075 119.9 212.865 119.9ZM225.073 120.981C225.073 121.605 225.625 122.086 226.73 122.447C229.422 123.312 231.993 124.706 231.993 127.109C231.993 129.344 230.215 131.098 227.427 131.098C225.289 131.098 223.054 129.801 221.756 127.782L223.894 126.172C224.543 127.037 225.937 128.287 227.427 128.287C228.363 128.287 229.157 127.83 229.157 127.205C229.157 126.196 227.883 125.692 226.297 125.139C222.933 123.961 222.212 122.327 222.189 120.957C222.141 118.794 224.183 117.281 226.874 117.281C228.316 117.281 230.167 117.665 231.897 119.756L229.686 121.414C228.701 120.381 227.619 120.02 226.874 120.02C226.033 120.02 225.073 120.308 225.073 120.981ZM234.324 129.127C234.853 129.127 235.261 129.537 235.261 130.065C235.261 130.593 234.852 130.978 234.324 130.978C233.795 130.978 233.411 130.594 233.411 130.065C233.411 129.536 233.795 129.127 234.324 129.127ZM244.273 117.305C246.219 117.305 248.213 118.362 249.199 120.14V112.714H250.496V130.737H249.319L249.223 128.238C248.237 130.016 246.219 131.073 244.273 131.073C240.476 131.073 237.712 128.238 237.712 124.2C237.712 120.163 240.476 117.305 244.273 117.305ZM244.105 118.602C241.029 118.602 238.962 121.173 238.962 124.225C238.962 127.277 241.029 129.776 244.105 129.776C247.18 129.776 249.247 127.301 249.247 124.225C249.247 121.149 247.013 118.602 244.105 118.602ZM254.653 124.225C254.653 127.325 256.504 129.776 259.603 129.776C261.31 129.776 263.208 128.983 263.905 127.757L264.89 128.551C263.953 130.065 261.718 131.074 259.603 131.074C255.807 131.074 253.38 127.999 253.38 124.201C253.38 120.404 255.783 117.305 259.58 117.305C263.376 117.305 265.299 120.453 265.323 124.225L254.653 124.225ZM254.75 122.927H263.954C263.593 120.477 262.199 118.602 259.581 118.602C256.961 118.602 255.183 120.453 254.751 122.928L254.75 122.927ZM266.454 113.193L266.505 109.025L263.787 109.135L263.737 113.303L266.454 113.193ZM273.882 113.848L272.351 111.819L268.729 114.581L270.261 116.61L273.882 113.848ZM273.748 122.937L274.531 120.317L270.501 119.339L269.718 121.959L273.747 122.937H273.748Z" fill="#17191B"/>
</g>
</g>
<defs>
<clipPath id="clip0_85_400">
<rect width="140.667" height="22.6667" fill="white" transform="translate(140 109)"/>
</clipPath>
</defs>
</svg>
